<?xml version="1.0" standalone="no"?>
<!DOCTYPE svg PUBLIC "-//W3C//DTD SVG 1.1//EN" "http://www.w3.org/Graphics/SVG/1.1/DTD/svg11.dtd" >
<svg xmlns="http://www.w3.org/2000/svg" xmlns:xlink="http://www.w3.org/1999/xlink" version="1.1">
<metadata>
Created by FontForge 20201107 at Thu Aug 29 11:28:33 2024
 By 
Copyright (c) 2022 by Nicky Laatz. All rights reserved.
</metadata>
<defs>
<font id="AwesomeSerif-LightRegular" horiz-adv-x="925" >
  <font-face 
    font-family="BonV-all Light"
    font-weight="300"
    font-stretch="normal"
    units-per-em="2048"
    panose-1="0 0 0 0 0 0 0 0 0 0"
    ascent="1638"
    descent="-410"
    x-height="1104"
    cap-height="1540"
    bbox="-129.209 -455 1948 1999"
    underline-thickness="102"
    underline-position="-255"
    unicode-range="U+000D-FB02"
  />
<missing-glyph horiz-adv-x="512" 
 />
    <glyph glyph-name="fi" unicode="fi" horiz-adv-x="937" 
d="M150 1110q1 79 8 137t28.5 115t57.5 92.5t96 57.5t143 22q120 0 210.5 -61t99.5 -150q4 -47 -28 -71.5t-69 -24.5q-40 0 -64.5 25.5t-29.5 64.5q-5 38 -9 57.5t-12.5 45.5t-21 37.5t-33.5 20.5t-51 9q-116 0 -156.5 -88.5t-37.5 -288.5h186v-47h-186l-2 -604v-44v-64
t0.5 -67t3 -74t5.5 -64t8.5 -58.5t12.5 -36.5q7 -12 30 -19t46 -7v-25h-340v25q23 0 46 7t30 19q6 10 10.5 27t7.5 40.5t5.5 46.5t4 55t2 54.5t1 56t0.5 50v45.5v33v241q0 56 -1 170t-1 172v21h-127l2 47h125zM516 1040l12 27q35 3 125 27t144 24l-4 -659v-44.5v-63.5
t0.5 -67t2.5 -74t5 -64t8 -58t12 -37q14 -26 78 -26l-2 -25h-338v25q23 0 46 7t30 19q31 59 31 408q0 339 -8 432q-8 97 -27 137q-10 15 -32 16t-42 -4.5t-41 0.5z" />
    <glyph glyph-name="fl" unicode="fl" horiz-adv-x="978" 
d="M422 1534q209 6 416 6l-4 -1081v-44v-64t0.5 -67t3 -74t5.5 -64t8.5 -58.5t12.5 -36.5q7 -12 30 -19t46 -7v-25h-340v25q23 0 46 7t30 19q6 10 10.5 27t7.5 40.5t5.5 46.5t4 55t2 54.5t1 56t0.5 50v45.5v33q0 714 -19 909q-10 54 -24 73q-45 59 -236 46
q-93 -6 -121.5 -90t-25.5 -287h188l-2 -47h-186q0 -405 -2 -604v-44v-64t0.5 -67t3 -74t5.5 -64t8.5 -58.5t12.5 -36.5q7 -12 30 -19t46 -7v-25h-340v25q23 0 46 7t30 19q6 10 10.5 27t7.5 40.5t5.5 46.5t4 55t2 54.5t1 56t0.5 50v45.5v33v239q0 58 -1 172t-1 172v21h-127
l2 47h125q1 50 2.5 86t8 82.5t18 79.5t31.5 67.5t48 56t69.5 36t94.5 16.5z" />
    <glyph glyph-name="Th" unicode="Th" horiz-adv-x="1814" 
d="M801 1485q-26 4 -154 8q-56 3 -65 -45q-10 -45 -15 -137t-5.5 -160.5t0.5 -208.5t1 -176q0 -46 -1 -171t-0.5 -188t3.5 -150.5t10.5 -136.5t20.5 -69q18 -26 80 -26l-2 -25h-348v25q61 0 77 26q9 14 15.5 44t10.5 79.5t6 95t2.5 120.5t1 122t0 133t-0.5 123
q0 31 0.5 137.5t0 164t-2 142t-6 142t-12.5 94.5q-6 48 -64 45q-105 -2 -150.5 -7t-74.5 -18q-16 -10 -31.5 -52t-28 -94t-16.5 -62l-26 14q1 25 4.5 117t3.5 149h930h88l-4 -639q39 106 137.5 172t212.5 66q116 0 191.5 -70.5t88.5 -202.5q4 -43 3.5 -238.5t5.5 -368
t26 -208.5q7 -12 31 -19t49 -7l-2 -25h-348v25q24 0 47.5 7t30.5 19q7 13 12.5 36.5t8.5 58.5t5.5 64t3 74t0.5 67v64v44q0 232 -4 342q-1 51 -11.5 95.5t-32.5 82.5t-62 60t-94 22q-38 0 -79.5 -13t-86 -41.5t-80.5 -84.5t-53 -131l-2 -332v-44v-64t0.5 -67t3 -74t5.5 -64
t8.5 -58.5t12.5 -36.5q7 -12 31 -19t47 -7v-25h-348l-2 25q63 0 80 26q7 13 12.5 36.5t8.5 58.5t5.5 64t3 74t0.5 67v64v44q0 26 0.5 126.5t0 166.5t-1 172.5t-2.5 181t-5.5 152.5t-9.5 126.5t-14 65.5q-15 21 -82 35z" />
    <glyph glyph-name="qu" unicode="qu" horiz-adv-x="1943" 
d="M180 561q-1 -90 14.5 -180t46 -170t84 -130t121.5 -50q235 0 259 542v101q0 12 1 61t1 82q-8 151 -52 219t-143 68q-69 0 -127 -38.5t-94.5 -97.5t-62 -134t-36.5 -143.5t-12 -129.5zM1671 -18v254q-37 -102 -130.5 -167.5t-205.5 -66.5q-121 -1 -192 74t-82 198
q-10 104 -5 241t-2 294t-34 215q-15 23 -43 23q-13 0 -53 -9q-1 0 -17.5 -3.5t-28.5 -9t-16 -13.5q-31 -59 -31 -338v-125v-168.5t0.5 -171t3 -182.5t6 -151t9.5 -128t14 -65q11 -17 33 -17q7 0 37 5.5t45 0.5l-12 -28q-35 -3 -125 -27.5t-144 -24.5l4 562
q-98 -172 -256 -172q-122 0 -218 77.5t-147.5 209t-51.5 292.5q0 85 18 168t56 159t91.5 133.5t130.5 91.5t167 34q118 0 188 -55q74 -27 166 -27q50 0 102 6q10 2 97.5 24.5t138.5 22.5q0 -291 -2 -436q0 -49 2 -184.5t2 -159.5q2 -48 12.5 -91.5t31.5 -82.5t59.5 -62.5
t88.5 -23.5q36 0 76 12.5t83.5 40t79 82t52.5 129.5q2 51 4 114t2.5 191t-9.5 232.5t-30 148.5q-11 16 -32 16q-9 0 -38.5 -4.5t-43.5 -1.5l12 29q35 3 124.5 27t143.5 24q0 -14 -2 -138t-2.5 -250t1 -269.5t10 -248.5t22.5 -136q11 -17 33 -17q8 0 39 6t45 1l-13 -27
q-36 -3 -123 -30t-141 -27z" />
    <glyph glyph-name="fh" unicode="fh" horiz-adv-x="1550" 
d="M659 1366q-8 42 -27.5 68t-70.5 42t-133 11q-93 -6 -121.5 -90t-25.5 -287h188l-2 -47h-186q0 -405 -2 -604v-44v-64t0.5 -67t3 -74t5.5 -64t8.5 -58.5t12.5 -36.5q7 -12 30 -19t46 -7v-25h-340v25q23 0 46 7t30 19q6 10 10.5 27t7.5 40.5t5.5 46.5t4 55t2 54.5t1 56
t0.5 50v45.5v33v239q0 58 -1 172t-1 172v21h-127l2 47h125q1 50 2.5 86t8 82.5t18 79.5t31.5 67.5t48 56t69.5 36t94.5 16.5q17 1 74.5 2t83.5 2q42 0 110 1t119 1l-4 -639q37 103 130.5 170t205.5 68q122 1 192.5 -73.5t83.5 -199.5q4 -43 4 -238.5t6 -368t25 -208.5
q7 -12 30 -19t46 -7v-25h-340v25q23 0 46 7t30 19q7 13 12.5 36.5t8.5 58.5t5.5 64t3 74t0.5 67v64v44q0 232 -4 342q-1 51 -11.5 95t-32 82.5t-60.5 60.5t-92 22q-36 0 -75.5 -13t-82.5 -41.5t-78.5 -84.5t-52.5 -131l-2 -332v-33v-45.5t0.5 -50t1 -56t2 -54.5t4 -55
t5.5 -46.5t7.5 -40.5t10.5 -27q7 -12 29.5 -19t45.5 -7v-25h-340v25q23 0 46 7t30 19q6 10 10.5 27t7.5 40.5t5.5 46.5t4 55t2 54.5t1 56t0.5 50v45.5v33q0 733 -17 907z" />
    <glyph glyph-name="fb" unicode="fb" horiz-adv-x="1527" 
d="M1346 571q1 113 -11 205t-39.5 168t-77 118t-118.5 42q-68 0 -121 -45.5t-84.5 -125t-49 -173t-22.5 -201.5l-2 -100q0 -12 -1 -61.5t-1 -82.5q8 -150 52.5 -218t142.5 -68q69 0 127 38.5t94.5 97.5t62 133.5t36.5 143t12 129.5zM1100 1151q189 0 293 -149t104 -431
q0 -85 -18 -168t-56 -158.5t-91.5 -133t-130.5 -91.5t-167 -34q-118 0 -188 55q-67 -1 -143.5 -24t-110.5 -27l-4 35q23 0 46 7t30 19q7 13 12.5 36.5t8.5 58.5t5.5 64t3 74t0.5 67v64v44q0 19 0.5 136.5t0 191t-1.5 184t-3.5 198.5t-7.5 152q-11 62 -17 77q-39 96 -213 90
q-12 0 -24 -1q-93 -6 -121.5 -90t-25.5 -287h188l-2 -47h-186q0 -405 -2 -604v-44v-64t0.5 -67t3 -74t5.5 -64t8.5 -58.5t12.5 -36.5q7 -12 30 -19t46 -7v-25h-340v25q23 0 46 7t30 19q6 10 10.5 27t7.5 40.5t5.5 46.5t4 55t2 54.5t1 56t0.5 50v45.5v33v239q0 58 -1 172
t-1 172v21h-127l2 47h125q1 50 2.5 86t8 82.5t18 79.5t31.5 67.5t48 56t69.5 36t94.5 16.5q13 1 38 1.5t62 1t64 1.5h2q30 0 87 1t79 1h73l-2 -582q49 89 118.5 141t156.5 52z" />
    <glyph glyph-name="fk" unicode="fk" horiz-adv-x="1482" 
d="M811 477v-18v-33v-45.5t0.5 -50t1 -56t2 -54.5t4 -55t5.5 -46.5t7.5 -40.5t10.5 -27q7 -12 30 -19t46 -7v-25h-340v25q23 0 45.5 7t29.5 19q6 10 10.5 27t7.5 40.5t5.5 46.5t4 55t2 54.5t1 56t0.5 50v45.5v33v127v171.5t-1 172.5t-3 185.5t-7 151t-11 124.5
q-8 36 -27.5 57.5t-70.5 33t-136 5.5q-93 -6 -121.5 -90t-25.5 -287h188l-2 -47h-186q0 -405 -2 -604v-44v-64t0.5 -67t3 -74t5.5 -64t8.5 -58.5t12.5 -36.5q7 -12 30 -19t46 -7v-25h-340v25q23 0 46 7t30 19q6 10 10.5 27t7.5 40.5t5.5 46.5t4 55t2 54.5t1 56t0.5 50v45.5
v33v239q0 58 -1 172t-1 172v21h-127l2 47h125q1 50 2.5 86t8 82.5t18 79.5t31.5 67.5t48 56t69.5 36t94.5 16.5q196 6 393 6l-4 -956q65 81 202.5 238.5t172.5 207.5q15 21 -22.5 39.5t-67.5 20.5l2 36h346v-36q-160 -22 -477 -410q42 7 75 -2q31 -7 67 -72t69.5 -152
t68.5 -173t75.5 -145.5t78.5 -59.5q14 0 26 6q30 13 68 61l18 -30q-34 -59 -76 -91t-102 -32t-107 46.5t-80.5 122.5t-63 158t-72 169t-90.5 139q-14 -18 -53.5 -70.5t-57.5 -77.5z" />
    <glyph glyph-name=".notdef" horiz-adv-x="512" 
 />
    <glyph glyph-name="uni0000" horiz-adv-x="0" 
 />
    <glyph glyph-name="uni0000" horiz-adv-x="0" 
 />
    <glyph glyph-name="uni000D" unicode="&#xd;" horiz-adv-x="512" 
 />
    <glyph glyph-name="space" unicode=" " horiz-adv-x="290" 
 />
    <glyph glyph-name="exclam" unicode="!" horiz-adv-x="528" 
d="M266 1559q38 0 61 -23t23 -61q0 -173 -33.5 -561.5t-35.5 -548.5h-33q-4 151 -36 542t-32 568q0 39 23.5 61.5t62.5 22.5zM250 166q42 0 71 -26.5t29 -65.5q0 -41 -28.5 -67.5t-71.5 -26.5q-44 0 -72 27t-28 67q0 39 29 65.5t71 26.5z" />
    <glyph glyph-name="quotedbl" unicode="&#x22;" horiz-adv-x="585" 
d="M162 1499q32 0 47.5 -30t15.5 -70q0 -65 -7 -110t-21.5 -102.5t-22.5 -107.5h-22q-9 47 -25 107t-22.5 104t-6.5 109q0 39 16.5 69.5t47.5 30.5zM422 1493q32 0 47.5 -30t15.5 -70q0 -84 -22.5 -181.5t-28.5 -138.5h-22q-9 42 -25.5 105.5t-22.5 106t-6 108.5
q0 39 16 69.5t48 30.5z" />
    <glyph glyph-name="numbersign" unicode="#" horiz-adv-x="1525" 
d="M508 391h418l182 447h-420zM195 365v26h211l180 447h-301v26h313l170 418h102l-170 -418h418l176 430h105l-176 -430h215v-26h-226l-182 -447h318v-26h-328l-174 -426h-105l174 426h-419l-179 -439h-102l178 439h-198z" />
    <glyph glyph-name="dollar" unicode="$" 
d="M496 709v-678q102 19 166 107t67 216q2 56 -14.5 106.5t-52 94.5t-73.5 78.5t-93 75.5zM434 989v529q-93 -14 -153.5 -76.5t-61.5 -155.5q0 -47 15.5 -88.5t48 -78.5t66.5 -65.5t85 -64.5zM434 1561v145h62v-145q57 -3 104 -19t89.5 -39t62.5 -30l16 67l45 2
q1 -5 11.5 -255t11.5 -255h-41q-33 247 -107.5 365.5t-191.5 124.5v-574q49 -34 74.5 -52t70.5 -54t70 -63t57.5 -69t50 -82t30.5 -92.5t15 -109.5q7 -182 -97 -300.5t-271 -141.5v-172h-62v165h-4q-174 0 -301 95l-23 -68h-45q-1 5 -6 262.5t-6 263.5l45 2
q2 -121 30.5 -217.5t76 -158t107 -94.5t126.5 -35v727q-39 28 -55.5 40t-52.5 39t-53 42.5t-46.5 43.5t-44 49t-34.5 51t-29.5 57.5t-16.5 61t-8 68.5q-1 84 27.5 151.5t78.5 109.5t109.5 65.5t124.5 28.5z" />
    <glyph glyph-name="percent" unicode="%" horiz-adv-x="1472" 
d="M803 307q0 59 10 115t33 108.5t57 92t86 63t117 23.5q81 0 141.5 -36t94 -96t49.5 -128t16 -142q0 -73 -16 -139.5t-49.5 -125t-94 -93.5t-141.5 -35q-65 0 -117 23.5t-86 62t-57 90t-33 106t-10 111.5zM922 307q0 -50 7.5 -103t25.5 -114t57 -100t94 -39q182 0 182 356
q0 43 -2.5 83.5t-14 95.5t-29.5 94.5t-53.5 67.5t-82.5 28q-53 0 -91.5 -36t-57.5 -95t-27 -117.5t-8 -120.5zM199 -84q51 81 1007 1624h84q-534 -865 -1007 -1624h-84zM76 1126q0 59 10 115t33 108.5t57 92t86 63t117 23.5q80 0 140.5 -36t94 -96t50 -128t16.5 -142
q0 -73 -16.5 -139.5t-50 -125t-94 -93.5t-140.5 -35q-65 0 -117 23.5t-86 62t-57 90t-33 106t-10 111.5zM195 1126q0 -50 7 -102.5t25 -113.5t57.5 -99.5t94.5 -38.5q182 0 182 354q0 56 -6 108.5t-23 117t-56 104t-97 39.5q-53 0 -91.5 -36t-57.5 -95t-27 -117.5t-8 -120.5
z" />
    <glyph glyph-name="ampersand" unicode="&#x26;" horiz-adv-x="1630" 
d="M436 819q-143 -85 -200.5 -172.5t-59.5 -212.5q-1 -188 126 -310t304 -122q89 0 182 26t168 72q-134 116 -286 329t-234 390zM539 905q205 129 218 368q1 6 1 9q3 40 -0.5 78.5t-16 75.5t-40 59.5t-66.5 22.5q-75 0 -114.5 -52t-49.5 -133q-28 -185 68 -428zM797 682
q-54 70 -37 148.5t100 113.5q66 27 134 33.5t140 6t123 9.5q30 6 58 16t59.5 26.5t55.5 38.5t46.5 53t33 70t15.5 89.5t-7 110.5q-16 106 -99 106q-39 0 -86 -30q-12 -9 -28 -9q-41 0 -70.5 41t-7.5 90q25 60 90 64q63 0 129 -57.5t102 -176.5q12 -39 15 -90.5t-8.5 -116.5
t-39.5 -125t-86.5 -115.5t-140.5 -88.5q-29 -13 -59 -19q42 -46 67 -107.5t27 -115.5q6 -141 -55.5 -270.5t-173.5 -229.5q153 -118 280 -118q80 0 133.5 38t94.5 113l18 -6q-52 -110 -130 -164.5t-194 -54.5q-150 0 -303 117q-188 -117 -403 -117q-156 1 -283 57
t-199.5 162.5t-62.5 241.5q9 129 96.5 235t278.5 203q-114 252 -80 428q24 125 98 195.5t199 70.5q109 0 177 -73.5t67 -192.5q-2 -108 -85 -214.5t-243 -197.5q74 -169 220.5 -372.5t283.5 -319.5q165 161 162 408q0 86 -46 165.5t-110 112.5q-112 9 -150 4
q-164 -25 -100 -166q2 -4 -2 -9t-9 -8z" />
    <glyph glyph-name="ampersand" unicode="&#x222b;" horiz-adv-x="1630" 
d="M436 819q-143 -85 -200.5 -172.5t-59.5 -212.5q-1 -188 126 -310t304 -122q89 0 182 26t168 72q-134 116 -286 329t-234 390zM539 905q205 129 218 368q1 6 1 9q3 40 -0.5 78.5t-16 75.5t-40 59.5t-66.5 22.5q-75 0 -114.5 -52t-49.5 -133q-28 -185 68 -428zM797 682
q-54 70 -37 148.5t100 113.5q66 27 134 33.5t140 6t123 9.5q30 6 58 16t59.5 26.5t55.5 38.5t46.5 53t33 70t15.5 89.5t-7 110.5q-16 106 -99 106q-39 0 -86 -30q-12 -9 -28 -9q-41 0 -70.5 41t-7.5 90q25 60 90 64q63 0 129 -57.5t102 -176.5q12 -39 15 -90.5t-8.5 -116.5
t-39.5 -125t-86.5 -115.5t-140.5 -88.5q-29 -13 -59 -19q42 -46 67 -107.5t27 -115.5q6 -141 -55.5 -270.5t-173.5 -229.5q153 -118 280 -118q80 0 133.5 38t94.5 113l18 -6q-52 -110 -130 -164.5t-194 -54.5q-150 0 -303 117q-188 -117 -403 -117q-156 1 -283 57
t-199.5 162.5t-62.5 241.5q9 129 96.5 235t278.5 203q-114 252 -80 428q24 125 98 195.5t199 70.5q109 0 177 -73.5t67 -192.5q-2 -108 -85 -214.5t-243 -197.5q74 -169 220.5 -372.5t283.5 -319.5q165 161 162 408q0 86 -46 165.5t-110 112.5q-112 9 -150 4
q-164 -25 -100 -166q2 -4 -2 -9t-9 -8z" />
    <glyph glyph-name="quotesingle" unicode="'" horiz-adv-x="309" 
d="M154 1499q32 0 47.5 -30t15.5 -70q0 -65 -7 -110t-21.5 -102.5t-22.5 -107.5h-23q-9 46 -24.5 106.5t-22 104.5t-6.5 109q0 39 16.5 69.5t47.5 30.5z" />
    <glyph glyph-name="parenleft" unicode="(" horiz-adv-x="555" 
d="M492 -109l-29 -24q-192 160 -303 388.5t-111 475.5q0 229 116.5 464.5t299.5 397.5l27 -22q-150 -164 -229 -387t-79 -453q0 -235 78 -455.5t230 -384.5z" />
    <glyph glyph-name="parenright" unicode=")" horiz-adv-x="555" 
d="M63 -109q151 164 229.5 386.5t78.5 453.5q0 235 -78 457.5t-230 382.5l27 22q54 -44 109 -106q11 -11 20 -23q287 -329 287 -733q0 -249 -110.5 -474.5t-305.5 -387.5z" />
    <glyph glyph-name="asterisk" unicode="*" horiz-adv-x="841" 
d="M406 1155q-33 -25 -97.5 -73t-97.5 -72q-11 -10 -18 -13q-29 -9 -50 25q-1 2 -2 5.5t-2 4.5q-14 23 -8 39q7 18 31 27l18 6l201 80l-219 92q-25 13 -31 27q-5 15 8 38q1 1 2 4.5t2 4.5q20 36 54 24q8 -4 14 -10q33 -25 97.5 -72.5t97.5 -72.5q-6 40 -18.5 119.5
t-18.5 119.5q-9 51 43 51h10h8q52 0 43 -51q-6 -40 -18.5 -119.5t-18.5 -119.5q33 25 98.5 73t98.5 72q6 6 14 10q33 12 53 -24q1 -1 5 -9q8 -12 8 -20q7 -30 -29 -45l-223 -92l203 -80l18 -6q25 -13 31 -27q6 -16 -8 -39l-5 -10q-20 -34 -49 -25q-8 3 -18 13
q-41 30 -197 145q6 -40 18.5 -120t18.5 -120q9 -51 -43 -51h-8h-10q-52 0 -43 51q6 40 18.5 120t18.5 120z" />
    <glyph glyph-name="plus" unicode="+" horiz-adv-x="1177" 
d="M633 391l-88 -2v309h-320v88h320v310h88v-308h319v-88h-319v-309z" />
    <glyph glyph-name="comma" unicode="," horiz-adv-x="466" 
d="M258 -14q-59 1 -86 36.5t-20 83.5q6 50 42 77t78 22q41 -5 65.5 -41.5t20.5 -97.5q-8 -94 -59.5 -162.5t-140.5 -100.5l-15 33q61 32 91 71.5t24 78.5z" />
    <glyph glyph-name="hyphen" unicode="-" horiz-adv-x="606" 
d="M539 516h-471v107h471v-107z" />
    <glyph glyph-name="period" unicode="." horiz-adv-x="360" 
d="M184 172q41 0 69 -27t28 -67q0 -42 -27.5 -70t-69.5 -28q-41 0 -67.5 28t-26.5 70q0 40 27 67t67 27z" />
    <glyph glyph-name="slash" unicode="/" horiz-adv-x="905" 
d="M246 -98h-92l651 1763h90z" />
    <glyph glyph-name="zero" unicode="0" horiz-adv-x="1034" 
d="M838 778q0 165 -15 292t-50 230t-98.5 158t-152.5 55t-152 -55.5t-97 -159.5t-49 -230.5t-15 -289.5q0 -764 313 -764q316 0 316 764zM522 1554q223 0 346 -190.5t123 -585.5q0 -394 -124.5 -599.5t-344.5 -205.5t-343.5 205.5t-123.5 599.5q0 392 122 584t345 192z" />
    <glyph glyph-name="one" unicode="1" horiz-adv-x="440" 
d="M14 1440l-2 30q33 3 79 21t102.5 33.5t121.5 15.5l-4 -1081q-8 -337 29 -408q7 -12 30 -19t46 -7v-25h-340v25q62 0 76 26q7 13 12.5 36.5t8.5 58.5t5.5 64t3 74t0.5 67v64v44q7 890 -35 981q-7 12 -28 12q-11 0 -50.5 -8.5t-54.5 -3.5z" />
    <glyph glyph-name="two" unicode="2" horiz-adv-x="1030" 
d="M975 0h-938l8 39q39 42 132.5 132.5t171 166.5t171 186t156.5 207.5t103 213.5t32 220q-6 84 -42 156.5t-101.5 120t-147.5 47.5q-127 0 -216 -85.5t-126 -213.5l-37 4q29 148 142.5 253t287.5 105q167 0 284.5 -106t117.5 -266q0 -79 -25.5 -163t-65.5 -157.5
t-99.5 -152.5t-118.5 -142.5t-131.5 -133t-128.5 -118.5t-120.5 -106t-97.5 -88h631q44 0 73 10t44 31t21.5 39t13.5 49q1 7 2 10h24z" />
    <glyph glyph-name="three" unicode="3" horiz-adv-x="972" 
d="M362 743l-14 31q45 39 67 59t61 58.5t59.5 65t47.5 67.5t40.5 77.5t23.5 83.5t10 97q0 96 -51.5 149.5t-142.5 53.5q-105 0 -191 -79t-133 -200l-37 6q36 136 156 239t250 103q119 0 205 -72t86 -200q0 -107 -66.5 -203.5t-161.5 -160.5q165 0 266 -110t101 -292
q0 -118 -46 -221.5t-120.5 -172t-169 -108t-192.5 -39.5q-66 0 -133 21.5t-123 59.5t-91.5 98t-35.5 129q0 28 19.5 51.5t45.5 23.5q23 0 40 -32.5t34 -79.5t42.5 -95t78.5 -84t129 -40q108 -6 197 52.5t136.5 157.5t45.5 212q-1 63 -17.5 128t-47 122.5t-81.5 94.5t-112 37
q-29 0 -64.5 -16.5t-53.5 -29.5t-57 -42z" />
    <glyph glyph-name="four" unicode="4" horiz-adv-x="1040" 
d="M616 1346l-516 -705l516 4q-3 29 -1.5 352t1.5 349zM584 51q6 11 11 33t8 52.5t5.5 63t4 73.5t2.5 74.5t1 76v67.5v59v42h-585v39l665 911h45v-901h265v-49h-265q0 -7 -1 -89.5t0 -133t3.5 -124.5t9.5 -123.5t19 -70.5q7 -12 30 -19t46 -7v-25h-340v25q23 0 46 7t30 19z
" />
    <glyph glyph-name="five" unicode="5" horiz-adv-x="966" 
d="M119 369q20 -6 33.5 -33.5t20.5 -65t23 -80t37.5 -78t66.5 -60t108 -25.5q162 0 270.5 116.5t107.5 319.5q-1 109 -34 202.5t-102.5 155.5t-162.5 62q-149 0 -346 -150l-30 33l104 723q31 2 131 -4t156 -6q65 0 116.5 6t102 21.5t83.5 46t44 75.5h35l-4 -274h-631
l-78 -539q170 113 326 113q192 0 314 -111.5t122 -316.5q0 -121 -46 -223t-120.5 -166.5t-166 -100t-185.5 -35.5q-117 0 -218.5 59t-144.5 161q-27 65 -17.5 105t34.5 58t51 11z" />
    <glyph glyph-name="six" unicode="6" horiz-adv-x="1007" 
d="M209 473q17 -130 54.5 -228.5t101 -159t145.5 -60.5q63 0 115.5 28.5t86.5 73.5t59 104t37 116t17 114q4 50 -1 106.5t-23 117t-48.5 109t-81.5 80t-116 31.5q-101 0 -181.5 -70t-121 -167t-43.5 -195zM500 -23q-84 0 -152.5 26t-115 71.5t-82 107.5t-54 135t-31.5 153
t-13 161.5t1 161.5q3 81 17.5 164.5t41.5 170.5t70.5 162.5t99.5 135t135 94t171 34.5q151 0 249 -78t93 -182q-1 -58 -34.5 -87t-64.5 -17q-20 8 -31.5 36t-15.5 63t-15 74.5t-28 72t-56.5 54t-98.5 21.5q-76 0 -138.5 -46.5t-103.5 -123.5t-71 -167.5t-46 -189t-23 -176
t-7 -140.5q38 129 146 209.5t243 80.5q80 0 147 -29t112.5 -77.5t75.5 -112.5t41.5 -135t6.5 -143q-8 -99 -42.5 -186t-93 -153.5t-144.5 -105t-189 -39.5z" />
    <glyph glyph-name="seven" unicode="7" horiz-adv-x="841" 
d="M39 1245l6 293l784 2l-10 -139q-74 -93 -132.5 -175.5t-132.5 -208.5t-118.5 -240t-67 -251t-1.5 -260q4 -22 11.5 -60.5t11 -65.5t3.5 -60q0 -39 -19 -69.5t-61 -30.5q-85 0 -96 102q-15 132 15.5 289t88 299.5t136.5 286t152 250.5t143 192q-36 1 -131.5 5.5
t-143.5 4.5h-57.5t-64.5 -3t-73.5 -8.5t-66.5 -17.5t-64 -29t-45 -44t-28 -62h-39z" />
    <glyph glyph-name="eight" unicode="8" horiz-adv-x="970" 
d="M410 743q-107 -53 -168.5 -147.5t-61.5 -212.5q0 -97 35.5 -178.5t107 -133t166.5 -51.5q132 0 218.5 84.5t76.5 229.5q-4 60 -26.5 112.5t-52.5 89.5t-80 74.5t-90 61.5t-101 58q-16 9 -24 13zM731 1198q3 138 -56 226.5t-188 88.5q-126 0 -198 -79.5t-78 -208.5
q-3 -58 17 -105t74 -92t91 -69t122 -72q27 -15 40 -23q173 123 176 334zM596 842q55 -32 97 -60t86.5 -68.5t73.5 -82.5t49 -99t22 -120q8 -189 -110 -309t-327 -123h-10q-198 0 -317 109t-113 292q10 245 324 385q-51 29 -88.5 54t-77 61t-64 74t-40 89t-15.5 109
q0 168 111.5 284.5t281.5 116.5q160 0 272.5 -101.5t112.5 -258.5q0 -121 -73 -205.5t-195 -146.5z" />
    <glyph glyph-name="nine" unicode="9" horiz-adv-x="958" 
d="M809 1038q-16 135 -52.5 237t-100.5 166t-148 64q-65 0 -118 -28t-87.5 -72t-59.5 -103.5t-37.5 -116t-17.5 -116.5q-4 -50 1.5 -106t24 -117t48.5 -109.5t81 -80t116 -31.5q75 0 140.5 38.5t109 99.5t69.5 132.5t31 142.5zM516 1552q84 0 152.5 -26t115 -71t82 -107.5
t54 -135t31.5 -152.5t13 -161.5t-1 -161.5q-4 -99 -23.5 -199t-61.5 -203t-101 -181.5t-149.5 -128.5t-199.5 -50q-151 0 -249 78.5t-93 182.5q1 58 34 87t64 17q17 -7 27.5 -29t16 -50.5t11 -62t17.5 -65t31 -57.5t55.5 -42t87.5 -16h10q88 2 161.5 78t120 197t71.5 269
t24 300q-38 -131 -145.5 -210t-243.5 -79q-99 0 -177.5 44t-124 116t-66 159t-13.5 177q8 99 42.5 186t92.5 153.5t144.5 105t189.5 38.5z" />
    <glyph glyph-name="colon" unicode=":" horiz-adv-x="378" 
d="M190 889q43 0 72 -27t29 -67t-29 -66.5t-72 -26.5q-44 0 -72 27t-28 66q0 40 28.5 67t71.5 27zM190 403q43 0 72 -27t29 -65q0 -41 -29 -67.5t-72 -26.5q-44 0 -72 27t-28 67q0 39 29 65.5t71 26.5z" />
    <glyph glyph-name="semicolon" unicode=";" horiz-adv-x="466" 
d="M258 -14q-59 1 -86 36.5t-20 83.5q6 50 42 77t78 22q41 -5 65.5 -41.5t20.5 -97.5q-8 -94 -59.5 -162.5t-140.5 -100.5l-15 33q61 32 91 71.5t24 78.5zM258 561q44 0 74 -30.5t30 -73.5q0 -47 -30 -78t-74 -31q-46 0 -75 31t-29 78q0 43 29.5 73.5t74.5 30.5z" />
    <glyph glyph-name="less" unicode="&#x3c;" horiz-adv-x="1075" 
d="M961 326v-82l-814 364v68l814 362v-80l-723 -315z" />
    <glyph glyph-name="equal" unicode="=" horiz-adv-x="1060" 
d="M164 823v88h729v-88h-729zM164 657h729v-86h-729v86z" />
    <glyph glyph-name="greater" unicode="&#x3e;" horiz-adv-x="1075" 
d="M928 608l-813 -364v82l723 317l-723 315v80l813 -362v-68z" />
    <glyph glyph-name="question" unicode="?" horiz-adv-x="759" 
d="M319 279v69q0 90 32 178t77.5 162t91 149t77.5 169.5t32 193.5q0 39 -4.5 74t-20 79t-41 75.5t-72.5 53.5t-110 23q-28 0 -57 -4t-62.5 -14.5t-54.5 -33.5t-21 -56q0 -31 20.5 -74t26.5 -63q12 -42 -12 -68.5t-69 -26.5q-49 0 -74 38t-25 89q0 63 32 113.5t83.5 81
t112 46t122.5 15.5q168 0 282 -107t114 -272q0 -71 -24 -139t-62.5 -123.5t-85.5 -110t-93 -107.5t-84.5 -107t-62 -118t-22.5 -130v-55h-46zM350 166q43 0 72 -27t29 -65q0 -41 -29 -67.5t-72 -26.5q-44 0 -72 27t-28 67q0 39 29 65.5t71 26.5z" />
    <glyph glyph-name="at" unicode="@" horiz-adv-x="1816" 
d="M840 225h6q43 0 82 30t65 76.5t42.5 91t25.5 85.5q24 120 24 371q0 120 -33.5 160.5t-123.5 43.5q-52 1 -92.5 -18t-67 -56.5t-44.5 -77t-28 -94t-14.5 -93t-7.5 -87.5q-8 -80 -2 -156.5t22.5 -136.5t54 -98t91.5 -41zM1237 1016l-41 -494q-12 -161 1 -231
q26 -129 132 -129q68 0 120.5 52t82 128.5t48.5 175t25 180.5t5 156q-5 344 -174 542.5t-482 198.5q-161 0 -290 -56t-212.5 -147.5t-139.5 -216.5t-79.5 -256.5t-23.5 -273.5q0 -99 11.5 -195.5t37.5 -192.5t64 -180.5t94.5 -158t126 -125.5t161 -82t197.5 -30
q229 0 440 125t293 319l47 -2q-58 -150 -181.5 -263.5t-279.5 -171t-321 -57.5q-134 0 -251.5 40.5t-206 112t-158.5 167.5t-114.5 209.5t-67.5 236t-23 248.5q0 154 33.5 298t104.5 272.5t173 223.5t248.5 150.5t320.5 55.5q133 0 249.5 -31.5t216 -100.5t169.5 -170.5
t107.5 -248t32.5 -326.5q-3 -89 -15 -171.5t-41.5 -170.5t-73.5 -152t-116 -105.5t-164 -41.5q-232 0 -268 240q-40 -89 -105.5 -140t-152.5 -51q-144 0 -223 134t-62 347q9 114 47.5 204.5t96.5 146t128 84t146 28.5q71 0 141.5 -12.5t119 -37t46.5 -54.5z" />
    <glyph glyph-name="A" unicode="A" horiz-adv-x="1126" 
d="M365 643h335q-112 445 -168 637q-57 -205 -167 -637zM713 598h-361q-6 -25 -18.5 -72.5t-16.5 -66.5l-11.5 -46t-15 -61t-16 -69t-15 -71t-11.5 -67t-5.5 -56t3.5 -38q4 -19 71 -24l-2 -27h-284v27q67 5 84 24q54 66 135 408l272 1081h92l-2 -2l2 2l273 -1081
q81 -342 135 -408q15 -19 84 -24v-27h-358l2 27q63 5 69 24q2 22 3 38t-5.5 56t-11.5 67t-15 71t-16 69t-15 61t-11 46q-6 21 -18 70t-17 69z" />
    <glyph glyph-name="B" unicode="B" horiz-adv-x="968" 
d="M393 791l-100 -3l-2 -329v-375q0 -49 51 -49h141q160 0 235 103.5t75 287.5q-1 203 -100.5 285.5t-299.5 79.5zM362 1505h-24q-43 0 -43 -41l-2 -641l74 2q64 1 114.5 15t84 34.5t58 53t37 61t20.5 69t10 66.5t3 62q1 39 -3 71.5t-14.5 71t-34 68t-59 55t-92 39.5
t-129.5 14zM27 1513v27h335q494 -5 494 -354q0 -62 -18 -117.5t-56.5 -107t-107 -90.5t-160.5 -58q206 0 320 -110t114 -277q0 -204 -107.5 -315t-275.5 -111h-526l-2 27q26 0 53.5 7t34.5 19q35 63 35 406q8 941 -35 1022q-19 37 -98 32z" />
    <glyph glyph-name="C" unicode="C" horiz-adv-x="1038" 
d="M524 -27q-219 0 -358 211t-139 594q0 196 38.5 347t107.5 243.5t160.5 139t201.5 46.5q169 0 290 -106l41 106h39l-18 -376h-41q-99 333 -311 333q-90 0 -159 -56.5t-111 -157t-63.5 -231.5t-21.5 -288q0 -160 21.5 -295t63.5 -240t111 -164.5t159 -58.5
q149 2 240.5 105.5t150.5 351.5h53q-15 -83 -36 -151.5t-58 -136t-84.5 -113.5t-118.5 -74.5t-158 -28.5z" />
    <glyph glyph-name="D" unicode="D" horiz-adv-x="1042" 
d="M383 1503h-88l-4 -1044v-422h92q103 1 185.5 41.5t137 109t91 164t52 201.5t15.5 225q1 118 -15 222.5t-52 197.5t-91 159.5t-137.5 105.5t-185.5 40zM27 1513v27h360q106 1 195.5 -24t153 -67.5t113 -104t80 -128.5t50.5 -144.5t27.5 -148.5t7.5 -145t-7.5 -145.5
t-27.5 -150t-50.5 -147t-80 -131t-113 -107t-153 -71t-195.5 -26.5h-358v27q27 2 59 11t39 21q33 59 33 400q8 933 -35 1014q-23 44 -98 40z" />
    <glyph glyph-name="E" unicode="E" horiz-adv-x="940" 
d="M258 778q0 -206 9.5 -401t23.5 -281q6 -47 63 -47q25 1 102 2.5t114 2.5t91 3.5t83 6t40 8.5q16 9 35.5 64.5t39.5 130t20 75.5l28 -14q-1 -39 -15.5 -158t-14.5 -172l-609 2h-241v27q3 0 13.5 1t15 1t13.5 2t14.5 4t11.5 6t9 10q9 14 15.5 44t10.5 80.5t6 96t2.5 120.5
t1 122.5t0 134t-0.5 123.5t0.5 122.5t0 133t-1 122t-2.5 120t-6 95.5t-10.5 80t-15.5 44q-3 6 -9 10t-11.5 6t-14.5 4t-13.5 2t-15 1t-13.5 1v27h809q0 -57 3.5 -149t4.5 -117l-27 -14q-4 10 -16.5 62t-28 94t-31.5 52q-36 17 -389 21q-55 3 -61 -45q-30 -171 -33 -617
q283 7 330 27q23 10 38 62.5t24 115.5t12 72l28 -4q-7 -297 0 -594l-28 -2q-3 9 -12 72t-24 115.5t-38 62.5q-49 20 -330 24z" />
    <glyph glyph-name="F" unicode="F" horiz-adv-x="868" 
d="M291 1444q-30 -171 -33 -617q282 7 332 27q22 10 37 62.5t24.5 115.5t12.5 72l26 -4q-7 -297 0 -594l-26 -2q-3 9 -12.5 72t-24.5 115.5t-37 62.5q-51 20 -332 24q0 -98 2.5 -225t14 -298.5t30.5 -201.5q16 -26 111 -26v-27h-389v27q3 0 13.5 1t15 1t13.5 2t14.5 4
t11.5 6t9 10q13 21 21.5 88.5t11 170.5t3.5 178t0 179t-1 105q0 37 0.5 122.5t0 133t-1 122t-2.5 120t-6 95.5t-10.5 80t-15.5 44q-3 6 -9 10t-11.5 6t-14.5 4t-13.5 2t-15 1t-13.5 1v27h809q0 -57 3.5 -149t4.5 -117l-27 -14q-2 5 -15.5 60.5t-28 96.5t-30.5 51
q-38 17 -391 21q-55 3 -61 -45z" />
    <glyph glyph-name="G" unicode="G" horiz-adv-x="1036" 
d="M27 774q0 196 38.5 347t107.5 243.5t160.5 139t201.5 46.5q169 0 290 -106l41 106h39l-18 -479h-41q-22 204 -113 320t-198 116q-90 0 -159 -56.5t-111 -157t-63.5 -231.5t-21.5 -288q0 -129 12.5 -237.5t42 -204.5t75.5 -162t116 -104t160 -37q106 0 163 47.5t68 109.5
q0 3 0.5 43.5t0 75.5t-1 89t-3 99t-6 90t-10 76.5t-15.5 45.5q-9 15 -50.5 26.5t-65.5 11.5l2 25h385v-25q-62 0 -78 -26q-26 -42 -33 -219v-312q-37 -86 -143.5 -144t-251.5 -58q-87 0 -160.5 26.5t-126 71.5t-93.5 108t-67 132.5t-43 149t-23.5 153t-6.5 149.5z" />
    <glyph glyph-name="H" unicode="H" horiz-adv-x="1136" 
d="M874 786h-610v-20q0 -52 -1 -172t-0.5 -186.5t3 -152t10.5 -135t21 -69.5q15 -24 78 -24v-27h-350v27q62 0 77 24q9 14 16 44t10.5 79t6 96.5t3 119t0.5 122.5t-0.5 132t-0.5 124q0 24 0.5 159t0 191.5t-3.5 153.5t-11 147.5t-21 69.5q-15 24 -77 24v27h350v-27
q-63 0 -78 -24q-7 -11 -12.5 -30.5t-9 -51t-6.5 -60.5t-4 -76.5t-2 -80t-1 -91t0.5 -89t1 -93t0.5 -86.5h610q1 153 1 210t-2 180t-10.5 184.5t-22.5 83.5q-15 24 -78 24v27h350v-27q-63 0 -78 -24q-13 -20 -21 -72.5t-10.5 -141t-3 -157.5t0.5 -187.5t1 -164.5
q0 -52 -1 -172t-0.5 -186.5t3 -152t10.5 -135t21 -69.5q15 -24 78 -24v-27h-350v27q63 0 78 24q13 19 21 67t10.5 138.5t3.5 150t0 191t-1 170.5v18z" />
    <glyph glyph-name="I" unicode="I" horiz-adv-x="399" 
d="M25 1513v27h350v-27q-3 0 -13.5 -1t-15 -1t-14 -2t-15 -4t-11.5 -6t-9 -10q-13 -20 -21 -72.5t-10.5 -141t-3 -157.5t0.5 -187.5t1 -164.5q0 -52 -1 -171.5t-0.5 -186t3 -151.5t10.5 -134.5t21 -69.5q16 -26 78 -26v-27h-350v27q61 0 77 26q9 14 16 44t10.5 78.5t6 96
t3 119t0.5 122t-0.5 131.5t-0.5 124q0 24 0.5 159t0 191.5t-3.5 153.5t-11 147.5t-21 69.5q-3 6 -9 10t-11.5 6t-14.5 4t-13.5 2t-15 1t-13.5 1z" />
    <glyph glyph-name="J" unicode="J" horiz-adv-x="503" 
d="M113 1513l2 27h348v-27q-62 0 -78 -26q-21 -31 -24 -211.5t2.5 -369t-1.5 -339.5q-12 -245 -29 -340q-38 -208 -158 -287q-64 -41 -155 -53l-2 35q48 -2 85.5 33.5t59.5 98.5t36.5 129.5t21 146.5t8.5 128.5t2 94.5v94.5v119t-0.5 124t-1.5 135t-2.5 125.5t-4.5 121
t-7 97t-9.5 78t-12.5 40q-16 26 -80 26z" />
    <glyph glyph-name="K" unicode="K" horiz-adv-x="1107" 
d="M25 1513v27h350v-27q-62 0 -78 -26q-13 -20 -21 -72.5t-10.5 -140.5t-3 -156.5t0.5 -187t1 -164.5v-43q65 94 157 227.5t109 157.5q4 6 22.5 32t30.5 42.5t33 46.5t35.5 52.5t33 51t30 50.5t22 43.5t14.5 37.5t1 25q-1 7 -31.5 16t-54.5 11l2 24h344v-27q-78 -5 -105 -24
q-52 -39 -148 -164t-157 -217l-100 -143l274 -525q170 -324 240 -387q24 -22 86 -26v-27h-389v27q94 6 96 26q1 17 -12 53.5t-38.5 88t-44.5 89t-49 93t-34 63.5q-179 334 -215 400l-154 -219q-1 -93 -0.5 -186.5t3 -170t10.5 -134t22 -77.5q16 -26 78 -26v-27h-350v27
q61 0 77 26q9 14 16 44t10.5 78.5t6 96t3 119t0.5 122t-0.5 131.5t-0.5 124q0 24 0.5 159t0 191t-3.5 152.5t-11 147t-21 69.5q-16 26 -77 26z" />
    <glyph glyph-name="L" unicode="L" horiz-adv-x="886" 
d="M352 49q348 4 391 23q16 9 35.5 64.5t39.5 130t20 75.5l28 -14q-1 -39 -15.5 -158t-14.5 -172l-568 2h-243v27q61 0 77 26q9 14 15.5 44t10.5 80t6 95.5t2.5 120.5t1 122t0 133.5t-0.5 123.5q0 7 1 105.5t0.5 176t-3 177.5t-11 167.5t-22.5 88.5q-16 26 -77 26v27h356
v-27q-62 0 -78 -26q-15 -23 -25 -119t-14 -228t-5 -213t-1 -149q0 -210 9 -404t22 -278q4 -21 21.5 -34t41.5 -13z" />
    <glyph glyph-name="M" unicode="M" horiz-adv-x="1431" 
d="M104 1487q-16 26 -79 26v27h270l448 -1227l398 1227h266v-27q-62 0 -78 -26q-13 -20 -21 -74t-10.5 -144.5t-3 -161.5t0.5 -191t1 -166q0 -52 -1 -169.5t-1 -181.5t3 -146.5t11 -130t21 -67.5q16 -26 78 -26v-27h-350v27q64 0 80 26q12 19 19.5 65.5t10 132.5t3.5 145
t0 184.5t-1 169.5q0 36 0.5 132t0.5 156.5t-1 141t-4.5 141t-9.5 100.5l-457 -1409l-505 1383l4 -631q0 -55 -1 -172t-1 -185t2.5 -152t10.5 -134t21 -70q16 -26 78 -26v-27h-282v27q63 0 79 26q12 19 20 66t10.5 139t3 148.5t0 191.5t-0.5 170q0 28 0.5 159.5t0 190.5
t-3 153.5t-10.5 145.5t-20 70z" />
    <glyph glyph-name="N" unicode="N" horiz-adv-x="1042" 
d="M737 1513v27h283v-27q-62 0 -78 -26q-13 -20 -21.5 -71.5t-11 -143t-3.5 -154.5t0 -188.5t1 -163.5v-766h-57l-657 1411l4 -645q0 -55 -1 -172t-1 -185t2.5 -152t10.5 -134t21 -70q16 -26 78 -26v-27h-282v27q61 0 77 26q9 14 16 44t10.5 78.5t6 96t3 119t0.5 122
t-0.5 131.5t-0.5 124q0 24 0.5 159t0 191t-3.5 152.5t-11 147t-21 69.5q-16 26 -77 26v27h270l555 -1206v434q0 32 0.5 114t0 129.5t-1 122.5t-2.5 123t-6 100t-10.5 84t-15.5 46q-16 26 -78 26z" />
    <glyph glyph-name="O" unicode="O" horiz-adv-x="1071" 
d="M891 778q0 159 -21.5 291t-64 232t-111.5 156t-159 56t-159 -56.5t-111 -157.5t-63.5 -232.5t-21.5 -288.5q0 -160 21.5 -295.5t63.5 -241.5t111 -166.5t159 -60.5q89 0 158.5 61t112 167.5t64 242t21.5 293.5zM535 1554q110 0 201 -46t160.5 -137.5t108.5 -243
t39 -349.5q0 -196 -39 -351t-108 -253t-161 -149.5t-201 -51.5t-201 51.5t-160.5 149.5t-107.5 253t-39 351t38.5 347t107.5 243.5t160.5 139t201.5 46.5z" />
    <glyph glyph-name="P" unicode="P" horiz-adv-x="903" 
d="M371 1501h-33q-43 0 -43 -41l-4 -876l-129 8q3 808 -37 881q-25 45 -98 40v27h344q254 -2 380 -95.5t126 -299.5q0 -197 -120 -320.5t-323 -126.5l-176 -2l4 39l146 2q139 0 225.5 110.5t85.5 297.5q-1 101 -25 172t-70.5 111.5t-108 57.5t-144.5 15zM162 592l129 -8
q-5 -194 0 -341.5t33 -189.5q14 -23 79 -26v-27h-360v27q70 3 86 26q6 10 11 24.5t8.5 37t6 44t4 56t2.5 61t1 71.5v74.5v84v86.5z" />
    <glyph glyph-name="Q" unicode="Q" horiz-adv-x="1073" 
d="M891 778q0 214 -36.5 374.5t-118 257.5t-199.5 97q-91 0 -160 -55.5t-111.5 -155.5t-64 -230.5t-21.5 -287.5q0 -160 21.5 -294.5t63.5 -239.5t112 -164.5t160 -59.5q89 0 158 60t111 165t63.5 240t21.5 293zM537 1554q88 0 163.5 -28t139 -89t108.5 -151t70.5 -219.5
t25.5 -288.5q0 -196 -38.5 -351t-107.5 -253t-160.5 -149.5t-200.5 -51.5t-201.5 51.5t-161.5 150t-108 253t-39 350.5t38.5 347t108 243.5t161 139t202.5 46.5zM188 -293l54 146q55 102 219 102q69 0 194 -21.5t162 -21.5q56 0 68 29q8 22 -17 61l25 8q21 -30 30 -65t1 -71
t-37 -58q-30 -21 -76 -21q-42 0 -164 23.5t-190 23.5q-180 0 -269 -135z" />
    <glyph glyph-name="R" unicode="R" horiz-adv-x="1030" 
d="M383 1505h-45q-20 0 -31.5 -11t-11.5 -30l-2 -641l94 2q91 1 156 27.5t96.5 56.5t50 88t21 85t3.5 84q1 14 1 20q1 41 -3.5 78.5t-24.5 83t-54.5 78.5t-98.5 55.5t-151 23.5zM555 803q74 -5 127 -47.5t81 -107t46 -140.5t28.5 -151.5t21.5 -137.5t31 -100.5t52 -38.5
q9 0 16.5 2.5t15.5 9.5t11 10.5t11.5 14.5t9.5 12l20 -25q-28 -45 -73 -75.5t-93 -30.5q-30 0 -65 18q-33 20 -53 69t-29.5 112.5t-18 137t-27 145.5t-49 135t-90.5 109.5t-145 63.5l-92 -2v-268q0 -12 1 -31.5t1 -27.5v-33.5v-45t0.5 -49.5t1 -55.5t2 -54t4 -54.5
t5.5 -46.5t7.5 -40.5t10.5 -27q7 -12 30.5 -19t46.5 -7v-27h-350v27q23 0 47 7t31 19q6 10 10.5 27t7.5 40.5t5.5 46.5t4 54.5t2 54t1 55.5t0.5 49.5v45v33.5v59q6 879 -35 955q-23 44 -98 40v27h358q133 -1 231.5 -31t153.5 -80.5t81 -111t26 -131.5q0 -161 -86.5 -255.5
t-235.5 -127.5z" />
    <glyph glyph-name="S" unicode="S" horiz-adv-x="880" 
d="M23 530l45 2q1 -69 13 -136.5t39 -136t65.5 -119.5t99.5 -82.5t135 -30.5q125 2 205 87t84 228q3 83 -30 155t-88.5 126.5t-123.5 105.5t-136.5 101.5t-126 103t-94 123t-38.5 149.5q-1 90 31 160.5t86.5 112t119 63t133.5 21.5q66 0 117.5 -16t99.5 -42t66 -32l16 67
l45 2q1 -5 11.5 -255t11.5 -255h-41q-7 54 -15.5 98.5t-24 106t-38.5 107.5t-55 89t-78 66t-102 23q-111 0 -188.5 -66.5t-78.5 -175.5q0 -69 34.5 -129.5t91 -106.5t124.5 -91.5t137 -96.5t126.5 -109t95.5 -140.5t41 -180.5q7 -200 -119 -322t-318 -124q-172 -3 -299 92
l-22 -68h-45q-1 5 -6 262.5t-6 263.5z" />
    <glyph glyph-name="T" unicode="T" horiz-adv-x="999" 
d="M354 1493q-105 -2 -150.5 -7t-74.5 -18q-16 -10 -31.5 -52t-28 -94t-16.5 -62l-26 14q1 25 4.5 117t3.5 149h930q0 -55 4.5 -145t5.5 -121l-29 -14q-2 5 -15.5 60.5t-28 96.5t-30.5 51q-29 13 -76 18t-149 7q-56 3 -65 -45q-10 -45 -15 -137t-5.5 -160.5t0.5 -208.5
t1 -176q0 -46 -1 -171t-0.5 -187.5t3.5 -150t10.5 -136t20.5 -68.5q18 -26 80 -26l-2 -27h-348v27q61 0 77 26q9 14 15.5 43.5t10.5 79.5t6 95t2.5 119.5t1 121.5t0 133t-0.5 123q0 31 0.5 137.5t0 164t-2 142t-6 142t-12.5 94.5q-6 48 -64 45z" />
    <glyph glyph-name="U" unicode="U" horiz-adv-x="1128" 
d="M137 768q0 28 0.5 159.5t0 190.5t-3 153.5t-10.5 145.5t-20 70q-18 26 -79 26v27h358v-27q-60 0 -76 -26q-13 -20 -21 -72.5t-10.5 -140.5t-3 -156.5t0.5 -187t1 -164.5q0 -23 -1 -72q-2 -247 19 -362q48 -271 246 -298q23 -3 48 -3q242 0 309 223q19 63 28 159t10 155
t1 200v174q4 483 -37 545q-16 26 -78 26v27h287v-27q-62 0 -78 -26q-39 -59 -35 -502q0 -39 1 -112.5t1 -106.5v-60q2 -52 0.5 -104t-2.5 -103.5t-8 -101.5t-15.5 -96.5t-25.5 -88.5t-38.5 -78t-54 -65.5t-72 -50.5t-92.5 -32t-116 -11q-64 0 -118 11.5t-95 32t-74 50
t-55 66t-39.5 79t-26.5 89.5t-15.5 97t-8 102t-3 105t0.5 105v56z" />
    <glyph glyph-name="V" unicode="V" horiz-adv-x="1132" 
d="M520 0v2l-270 1079q-81 339 -135 406q-23 26 -86 26l2 27h348v-27q-23 0 -45.5 -7t-26.5 -19q-19 -66 74 -406q153 -605 217 -829q82 288 219 829q3 12 11.5 45.5t15 60.5t16 69t15 71t11.5 66.5t5.5 55.5t-2.5 38q-9 26 -72 26v27h287v-27q-64 0 -84 -26
q-54 -67 -135 -406l-273 -1081h-92z" />
    <glyph glyph-name="W" unicode="W" horiz-adv-x="1783" 
d="M1255 0h-86l-276 1049l-277 -1049h-84l-286 1081q-25 105 -65 235t-72 171q-20 26 -78 26l2 27h332v-27q-23 0 -43 -7t-23 -19q-14 -63 80 -406q3 -11 10 -37t10 -38q117 -444 211 -760q75 252 230 835q12 39 22 84q-74 269 -114 322q-20 26 -80 26l2 27h334l-3 -27
q-22 0 -41 -7t-22 -19q-15 -59 80 -406q2 -9 20 -75q137 -520 209 -764q100 338 232 839q94 343 80 406q-4 12 -24 19t-42 7v27h264v-27q-60 0 -80 -26q-12 -15 -26 -47.5t-25.5 -65.5t-27 -84t-23.5 -79t-21 -77t-14 -53z" />
    <glyph glyph-name="X" unicode="X" horiz-adv-x="1124" 
d="M502 842q-179 410 -245 532q-47 88 -75 113q-26 26 -90 26v27h367v-27q-61 0 -66 -26q-4 -20 10.5 -71t48 -134t63 -152t77.5 -176q52 116 78.5 177t62.5 149.5t50 137.5t10 69q-7 26 -68 26v27h289v-27q-62 0 -90 -26q-72 -67 -299 -604q27 -61 51 -117q24 -54 75 -172
t81 -185t69.5 -152t69 -134.5t51.5 -69.5q28 -26 90 -26v-27h-367v27q61 0 68 26q3 14 -3.5 44t-25 79t-36 95t-49.5 119.5t-53 121.5t-59 132.5t-55 123.5q-19 -44 -54 -124t-58 -131.5t-53 -122.5t-48.5 -118.5t-36 -96t-24.5 -78.5t-4 -44q5 -26 65 -26v-27h-288v27
q64 0 90 26q22 20 52 69.5t70 134.5t69.5 151t81.5 186t75 172q7 18 33 76z" />
    <glyph glyph-name="Y" unicode="Y" horiz-adv-x="1097" 
d="M590 760q108 252 192 470.5t76 256.5q-7 26 -74 26v27h289v-27q-62 0 -90 -26q-31 -28 -91 -160t-146 -344.5t-119 -286.5q-7 -256 -2 -427.5t34 -215.5q16 -26 78 -26v-27h-348l-2 27q64 0 80 26q27 41 31.5 226.5t-0.5 386.5q-22 50 -121 286.5t-162 370t-96 164.5
q-26 26 -90 26v27h350v-27q-61 0 -66 -26q-16 -68 277 -727z" />
    <glyph glyph-name="Z" unicode="Z" horiz-adv-x="905" 
d="M850 2h-834l717 1491q-446 -9 -481 -25q-16 -10 -34 -72.5t-33.5 -135.5t-18.5 -82l-27 12q1 29 7 161.5t6 188.5h761l-716 -1491q513 5 551 21q16 10 38.5 84t43 161t22.5 93l29 -13q-1 -38 -16 -189t-15 -204z" />
    <glyph glyph-name="bracketleft" unicode="[" horiz-adv-x="536" 
d="M154 1554h374v-43h-237v-1622h237v-43h-374v1708z" />
    <glyph glyph-name="backslash" unicode="\" horiz-adv-x="968" 
d="M723 -98l-649 1763h90l651 -1763h-92z" />
    <glyph glyph-name="bracketright" unicode="]" horiz-adv-x="536" 
d="M383 1554v-1708h-375v43h238v1622h-238v43h375z" />
    <glyph glyph-name="asciicircum" unicode="^" horiz-adv-x="1148" 
d="M311 1102l228 270h65l225 -270h-79l-181 215l-176 -215h-82z" />
    <glyph glyph-name="underscore" unicode="_" horiz-adv-x="1038" 
d="M952 -143h-856v61h856v-61z" />
    <glyph glyph-name="grave" unicode="`" horiz-adv-x="499" 
d="M438 1223l-12 -11l-258 154q-31 19 -44 45.5t-8.5 49.5t19.5 40q23 23 53 23q43 0 74 -47z" />
    <glyph glyph-name="a" unicode="a" 
d="M664 297q4 47 4.5 100t-1 123t-1.5 101v47q-23 -53 -81 -96t-122.5 -73.5t-127.5 -63.5t-106.5 -83t-48.5 -116q-7 -87 51.5 -135t149.5 -48q108 0 191 69.5t92 174.5zM662 158q-54 -88 -140.5 -136.5t-189.5 -48.5q-57 0 -110.5 15t-97.5 45t-69.5 80.5t-21.5 115.5
q3 60 33.5 106.5t78.5 77t106.5 56.5t121.5 51t119 53t102.5 71.5t69.5 98.5q-1 58 -6 102t-20.5 94t-40.5 82t-69 53.5t-104 21.5q-231 0 -248 -361q-23 -26 -74 -26q-24 0 -40.5 13t-16.5 36q0 170 118 274.5t286 104.5q140 0 236 -85.5t106 -224.5q4 -41 4 -125
q0 -13 -1.5 -96.5t-1 -153t2.5 -154.5t9.5 -144t20.5 -78q10 -15 33 -15q12 0 33 3.5t31 3.5q14 0 18 -2l-12 -27q-40 -4 -129 -33t-140 -29z" />
    <glyph glyph-name="b" unicode="b" horiz-adv-x="974" 
d="M793 571q1 113 -11 205t-39.5 168t-77 118t-118.5 42q-55 0 -100.5 -30.5t-76.5 -82t-53 -122.5t-33.5 -148t-15.5 -162v-100q0 -12 -1 -61.5t-1 -82.5q8 -151 52 -218.5t143 -67.5q69 0 127 38.5t94.5 97.5t62 133.5t36.5 143t12 129.5zM547 1151q189 0 293 -149
t104 -431q0 -85 -18 -168t-56 -158.5t-91.5 -133t-130.5 -91.5t-167 -34q-118 0 -188 55q-67 -1 -143.5 -24t-110.5 -27l-4 35q23 0 46 7t30 19q7 13 12.5 36.5t8.5 58.5t5.5 64t3 74t0.5 67v64v44q0 26 0.5 126.5t0 166.5t-1 172.5t-2.5 181t-5.5 152.5t-9.5 126.5
t-14 65.5q-11 16 -33 16q-7 0 -37 -5.5t-45 -0.5l14 27q35 3 123.5 28t142.5 25l-4 -582q110 193 277 193z" />
    <glyph glyph-name="c" unicode="c" horiz-adv-x="843" 
d="M795 924q22 -45 -20 -92t-83 -41q-12 44 -28.5 87.5t-46 99t-74.5 90t-97 34.5q-73 0 -128 -55.5t-83.5 -141.5t-41.5 -170t-13 -162q0 -87 18.5 -178t54.5 -174t97.5 -135.5t138.5 -52.5q114 0 207 98.5t109 216.5l37 -6q-18 -155 -131.5 -265t-266.5 -110
q-81 0 -150 33.5t-117 91.5t-82 135.5t-50 165t-16 180.5q0 159 50.5 289.5t146.5 208.5t220 78q118 0 214 -66.5t135 -158.5z" />
    <glyph glyph-name="d" unicode="d" horiz-adv-x="1011" 
d="M733 291l2 522v43q-18 128 -80 191t-188 63q-66 0 -120.5 -50t-88.5 -130t-54 -169t-24 -177q-4 -91 7 -183.5t37.5 -178t77 -140.5t118.5 -59h14q104 0 186 67t113 201zM461 1149q170 0 272 -105q-7 355 -31 406q-11 16 -32 16q-7 0 -37 -5.5t-45 -0.5l12 27
q35 3 124.5 28t143.5 25l-4 -817q0 -570 33 -637q11 -16 33 -16q7 0 37 5.5t45 0.5l-15 -27q-35 -3 -123.5 -28t-142.5 -25v151q-119 -167 -297 -167h-16q-121 6 -213.5 92t-137.5 222.5t-38 295.5q11 239 131 399t301 160z" />
    <glyph glyph-name="e" unicode="e" horiz-adv-x="860" 
d="M702 866q-17 94 -79.5 166t-159.5 72q-50 0 -91 -18.5t-69 -47.5t-49.5 -70.5t-34 -82.5t-20.5 -88h436q32 0 51.5 20t15.5 49zM807 758h-614q-13 -82 -13 -176q0 -143 32 -266.5t102.5 -207t168.5 -83.5q117 0 210.5 101t111.5 222l37 -6q-21 -157 -132.5 -268
t-265.5 -111q-128 0 -223 81t-143.5 220.5t-48.5 317.5q0 255 114 413t303 158q163 0 274 -94.5t126 -259.5q1 -19 -9.5 -30t-29.5 -11z" />
    <glyph glyph-name="f" unicode="f" horiz-adv-x="665" 
d="M23 1063l2 47h125q1 62 4 106t12.5 97.5t29.5 89.5t51 68t79.5 47.5t113.5 15.5q112 0 186 -48t95 -122q21 -44 -22 -82t-85 -33q-7 34 -9.5 46t-11.5 45t-16.5 47.5t-22.5 38.5t-31.5 35t-41 19t-53.5 7q-93 -3 -121.5 -88t-25.5 -289h188l-2 -47h-186q0 -405 -2 -604
v-44v-64t0.5 -67t3 -74t5.5 -64t8.5 -58.5t12.5 -36.5q7 -12 30 -19t46 -7v-25h-340v25q23 0 46 7t30 19q6 10 10.5 27t7.5 40.5t5.5 46.5t4 55t2 54.5t1 56t0.5 50v45.5v33v239q0 58 -1 172t-1 172v21h-127z" />
    <glyph glyph-name="g" unicode="g" horiz-adv-x="976" 
d="M762 748q0 157 -81.5 264.5t-199.5 107.5q-117 0 -197.5 -107.5t-80.5 -264.5q0 -153 79 -256t199 -103q119 0 200 103.5t81 255.5zM481 1157q158 0 281 -92q25 25 33 47q16 35 -1.5 84.5t-68.5 103.5q1 26 37 46t74 20q32 0 43 -16q62 -121 -2 -246q-25 -56 -66 -84
q111 -114 111 -272q0 -166 -127.5 -279t-313.5 -113q-41 0 -78 6q-105 -11 -165 -40t-60 -70q0 -33 25.5 -46t75.5 -13q44 0 172.5 16t197.5 16q104 0 174 -31.5t99 -111.5q23 -73 20 -142.5t-39.5 -132t-93 -109t-142 -74t-184.5 -27.5h-20q-191 5 -304 101t-100 267
q8 25 50 25q36 0 77 -18t43 -33q-10 -156 52 -225t198 -74h15q77 0 143.5 19.5t111 55t69 80t21 98.5t-35.5 107q-48 84 -215 84q-49 0 -150 -9t-145 -9q-92 0 -142 30.5t-49 110.5q1 66 56.5 115.5t142.5 64.5q-118 47 -189 143.5t-71 217.5q0 171 128.5 290t311.5 119z
" />
    <glyph glyph-name="h" unicode="h" horiz-adv-x="1015" 
d="M-6 1460l14 27q35 3 123.5 28t142.5 25l-4 -639q37 103 130.5 170t205.5 68q122 1 193.5 -73.5t83.5 -199.5q4 -43 4 -238.5t6 -368t25 -208.5q7 -12 29.5 -19t45.5 -7v-25h-340v25q23 0 46 7t30 19q6 10 10.5 27t7.5 40.5t5.5 46.5t4 55t2 54.5t1 56t0.5 50v45.5v33
q0 232 -4 342q-1 51 -11.5 95t-32.5 82t-61 60.5t-92 22.5q-36 0 -75.5 -13t-82.5 -41.5t-78.5 -84.5t-52.5 -131l-2 -332v-33v-45.5t0.5 -50t1 -56t2 -54.5t4 -55t5.5 -46.5t7.5 -40.5t10.5 -27q7 -12 30 -19t46 -7v-25h-340v25q23 0 46 7t30 19q7 13 12.5 36.5t8.5 58.5
t5.5 64t3 74t0.5 67v64v44q0 26 0.5 126.5t0 166.5t-1 172.5t-2.5 181t-5.5 152.5t-9.5 126.5t-14 65.5q-11 16 -33 16q-7 0 -37 -5.5t-45 -0.5z" />
    <glyph glyph-name="i" unicode="i" horiz-adv-x="415" 
d="M-6 1038l14 29q35 3 123.5 27t142.5 24l-4 -659v-33.5v-45v-50t1 -56t2.5 -54.5t3.5 -54.5t5 -47t7.5 -40.5t9.5 -27q14 -26 78 -26l-2 -25h-338v25q23 0 46 7t30 19q7 13 12.5 36.5t8.5 58.5t5.5 64t3 74t0.5 67v64v44v81v82.5v75t-1 75t-2.5 65.5t-4 62.5t-6.5 50.5
t-9 45.5t-11 31.5q-11 16 -33 16q-9 0 -38.5 -4.5t-43.5 -1.5zM80 1364q0 36 27 62t67 26q39 0 67.5 -26t28.5 -62q0 -37 -28 -63.5t-68 -26.5q-41 0 -67.5 26.5t-26.5 63.5z" />
    <glyph glyph-name="j" unicode="j" horiz-adv-x="452" 
d="M262 145v398q0 203 -6.5 319t-30.5 166q-11 16 -32 16q-8 0 -38 -4.5t-44 -1.5l14 29q35 3 124.5 27t143.5 24l-4 -534v-310v-23q0 -83 -1 -128t-7 -125t-18.5 -126.5t-37.5 -106.5t-60.5 -92.5t-91 -55.5t-126.5 -23q-58 0 -115 26t-61 65q-3 25 37 55.5t61 30.5
q14 -5 30 -26.5t30 -43t39 -39.5t55 -18q139 24 139 501zM211 1364q0 36 27 62t67 26q39 0 67.5 -26t28.5 -62q0 -37 -28 -63.5t-68 -26.5q-41 0 -67.5 26.5t-26.5 63.5zM115 958h10h-10z" />
    <glyph glyph-name="k" unicode="k" horiz-adv-x="942" 
d="M270 477v-18v-33.5v-45v-50t1 -56t2.5 -54.5t3.5 -54.5t5 -47t7.5 -40.5t9.5 -27q14 -26 78 -26l-2 -25h-338v25q23 0 46 7t30 19q7 13 12.5 36.5t8.5 58.5t5.5 64t3 74t0.5 67v64v44v95v122v130.5t-1 142t-2.5 134.5t-4 130t-6 106t-9 85t-11.5 46q-11 16 -33 16
q-7 0 -37 -5.5t-45 -0.5l14 29q35 3 123.5 27t142.5 24l-4 -960q65 79 202.5 229.5t172.5 200.5q15 20 -22 38.5t-68 20.5l2 37h346l-2 -37q-61 -8 -146.5 -70t-162.5 -140.5t-160 -178.5q32 6 70 -2q31 -7 67 -72t69.5 -152t68 -173t75 -145.5t78.5 -59.5q15 0 27 6
q29 13 67 61l19 -30q-34 -59 -76 -91t-102 -32t-107 46t-80.5 122t-63.5 157t-71.5 168.5t-89.5 139.5q-79 -101 -113 -146z" />
    <glyph glyph-name="l" unicode="l" horiz-adv-x="415" 
d="M-6 1460l14 29q35 3 123.5 27t142.5 24l-4 -1081v-33.5v-45v-50t1 -56t2.5 -54.5t3.5 -54.5t5 -47t7.5 -40.5t9.5 -27q14 -26 78 -26l-2 -25h-338v25q23 0 46 7t30 19q7 13 12.5 36.5t8.5 58.5t5.5 64t3 74t0.5 67v64v44v95v122v130.5t-1 142t-2.5 134.5t-4 130t-6 106
t-9 85t-11.5 46q-11 16 -33 16q-7 0 -37 -5.5t-45 -0.5z" />
    <glyph glyph-name="m" unicode="m" horiz-adv-x="1632" 
d="M887 782q1 -47 1 -147t1 -183t3.5 -171.5t9 -149t16.5 -80.5q7 -12 29.5 -19t45.5 -7v-25h-340v25q23 0 46 7t30 19q6 10 10.5 27t7.5 40.5t5.5 46.5t4 55t2 54.5t1 56t0.5 50v45.5v33q0 232 -4 342q-1 51 -11.5 95t-32.5 82t-61 60.5t-92 22.5q-36 0 -75.5 -12.5
t-82 -40.5t-77.5 -83t-52 -130l-4 -336v-33v-45.5t0.5 -50t1 -56t2 -54.5t4 -55t5.5 -46.5t7.5 -40.5t10.5 -27q7 -12 30 -19t46 -7v-25h-340v25q23 0 46 7t30 19q7 13 12.5 36.5t8.5 58.5t5.5 64t3 74t0.5 67v64v44q0 33 0.5 103.5t0 105t-1 91.5t-2.5 89.5t-5.5 71.5
t-9.5 64.5t-14 43.5q-11 16 -33 16q-7 0 -37 -5.5t-45 -0.5l14 27q35 3 123.5 28t142.5 25l-2 -213q37 101 130.5 167t203.5 67q122 1 193.5 -73.5t83.5 -199.5v-2v21q32 109 128.5 181t213.5 73q121 1 191 -74t83 -199q4 -43 4 -238.5t6 -368t25 -208.5q7 -12 30 -19t46 -7
v-25h-340v25q62 0 76 26q10 18 16.5 57t9.5 91.5t4 95.5t1.5 97t0.5 67q0 177 -6 342q-1 50 -11.5 94t-31.5 82.5t-60 61t-91 22.5q-37 0 -77.5 -13.5t-84 -42.5t-79 -87t-50.5 -136z" />
    <glyph glyph-name="n" unicode="n" horiz-adv-x="1015" 
d="M-6 1038l14 27q35 3 123.5 28t142.5 25l-2 -213q37 101 130.5 167t203.5 67q122 1 193.5 -73.5t83.5 -199.5q4 -43 4 -238.5t6 -368t25 -208.5q7 -12 29.5 -19t45.5 -7v-25h-340v25q23 0 46 7t30 19q6 10 10.5 27t7.5 40.5t5.5 46.5t4 55t2 54.5t1 56t0.5 50v45.5v33
q0 232 -4 342q-1 51 -11.5 95t-32.5 82t-61 60.5t-92 22.5q-36 0 -75.5 -12.5t-82 -40.5t-77.5 -83t-52 -130l-4 -336v-33v-45.5t0.5 -50t1 -56t2 -54.5t4 -55t5.5 -46.5t7.5 -40.5t10.5 -27q7 -12 30 -19t46 -7v-25h-340v25q23 0 46 7t30 19q7 13 12.5 36.5t8.5 58.5
t5.5 64t3 74t0.5 67v64v44q0 33 0.5 103.5t0 105t-1 91.5t-2.5 89.5t-5.5 71.5t-9.5 64.5t-14 43.5q-11 16 -33 16q-7 0 -37 -5.5t-45 -0.5z" />
    <glyph glyph-name="o" unicode="o" horiz-adv-x="921" 
d="M735 571q0 547 -274 547q-277 0 -277 -547q0 -569 277 -569q274 0 274 569zM461 1161q126 0 225.5 -77.5t153 -212t53.5 -300.5q0 -165 -53.5 -304t-153 -223.5t-225.5 -84.5t-226 84.5t-153 223.5t-53 304t52.5 299t152 212.5t227.5 78.5z" />
    <glyph glyph-name="p" unicode="p" horiz-adv-x="1030" 
d="M295 829l-2 -563q18 -138 77.5 -197t170.5 -59q64 0 116.5 39t85.5 97t56.5 133t34.5 138.5t14 121.5q4 91 -7 183.5t-37.5 178t-77 140t-118.5 57.5h-14q-105 0 -186.5 -67.5t-112.5 -201.5zM135 -352q29 57 29 309v393q0 614 -33 686q-12 15 -33 15q-5 0 -41 -5t-41 1
l13 26q35 3 124.5 28t143.5 25l-2 -151q124 166 299 166h16q121 -6 213.5 -92.5t137.5 -223t38 -295.5q-4 -79 -23 -157t-56.5 -151t-89 -128.5t-125 -89t-158.5 -33.5q-160 0 -256 99v-113q0 -250 31 -309q12 -22 75 -27v-24h-338v24q64 5 76 27z" />
    <glyph glyph-name="q" unicode="q" horiz-adv-x="997" 
d="M180 561q-1 -90 14.5 -180t46 -170t84 -130t121.5 -50q235 0 259 542v101q0 12 1 61t1 82q-8 151 -52 219t-143 68q-69 0 -127 -38.5t-94.5 -97.5t-62 -134t-36.5 -143.5t-12 -129.5zM446 -18q-122 0 -218 77.5t-147.5 209t-51.5 292.5q0 85 18 168t56 159t91.5 133.5
t130.5 91.5t167 34q118 0 188 -55q68 1 144 24t110 27l4 -35q-64 -5 -76 -27q-31 -59 -31 -407v-125v-168.5t0.5 -171t3 -182.5t6 -151t9.5 -128t14 -65q11 -17 33 -17q7 0 37 5.5t45 0.5l-12 -28q-35 -3 -125 -27.5t-144 -24.5l4 562q-98 -172 -256 -172z" />
    <glyph glyph-name="r" unicode="r" horiz-adv-x="796" 
d="M-6 1038l14 27q35 3 123.5 28t142.5 25l-2 -305q11 58 34.5 113t59 103.5t88 78t113.5 29.5t115 -31t84 -84q25 -43 -11 -84t-83 -41q-26 0 -43 14q-11 59 -42.5 102.5t-84.5 43.5q-83 0 -156 -133t-76 -351l-2 -114v-33v-45.5t0.5 -50t1 -56t2 -54.5t4 -55t5.5 -46.5
t7.5 -40.5t10.5 -27q7 -12 30 -19t46 -7v-25h-340v25q23 0 46 7t30 19q7 13 12.5 36.5t8.5 58.5t5.5 64t3 74t0.5 67v64v44q0 33 0.5 103.5t0 105t-1 91.5t-2.5 89.5t-5.5 71.5t-9.5 64.5t-14 43.5q-11 16 -33 16q-7 0 -37 -5.5t-45 -0.5z" />
    <glyph glyph-name="s" unicode="s" horiz-adv-x="802" 
d="M698 795q-13 83 -49.5 156t-101.5 124t-144 51q-93 0 -156 -70.5t-63 -162.5q0 -73 32.5 -125.5t84.5 -83t114.5 -54.5t125 -49.5t114.5 -58.5t84.5 -91.5t32.5 -139.5q0 -159 -109.5 -253t-261.5 -89q-63 2 -126.5 21.5t-125.5 47t-88 35.5q-20 31 -21 139t21 177
q17 3 25 2q9 -50 26 -100t45.5 -102t65 -91.5t89 -65t112.5 -26.5q102 0 162.5 65t60.5 178q0 59 -20 104.5t-54 74.5t-78.5 51.5t-93 40.5t-97 36.5t-93 44.5t-78.5 59t-54 85t-20 119q0 80 31.5 143.5t84.5 101.5t117 57t132 17q71 -3 169.5 -38t135.5 -35q19 -73 15 -166
t-19 -123q-15 -6 -27 -6z" />
    <glyph glyph-name="t" unicode="t" horiz-adv-x="552" 
d="M508 1065h-191q-8 -556 -4 -834q1 -93 28 -140.5t71 -47.5q54 0 129 66l6 -46q-83 -83 -193 -83q-67 0 -114 37t-54 104q-7 69 -7.5 460t-20.5 470q-8 6 -19.5 9.5t-28 4.5t-28.5 1t-32 -0.5t-27 -0.5l-3 43q46 -1 88.5 12t80.5 40.5t66 76.5t38 115l29 2l-5 -242v-4h193
z" />
    <glyph glyph-name="u" unicode="u" horiz-adv-x="1021" 
d="M750 -18v254q-37 -102 -130.5 -167.5t-205.5 -66.5q-121 -1 -191.5 73.5t-83.5 198.5q-10 104 -5.5 242t-3 296t-34.5 216q-11 16 -33 16q-9 0 -38 -4.5t-43 -1.5l14 29q35 3 123.5 27t142.5 24q0 -291 -2 -436q0 -173 6 -344q1 -48 11.5 -91.5t31.5 -82.5t59.5 -62.5
t88.5 -23.5q36 0 76 12.5t83.5 40t80 82t53.5 129.5l2 73q2 73 2.5 152.5t-1.5 174t-11.5 172.5t-26.5 114q-11 16 -33 16q-9 0 -38.5 -4.5t-43.5 -1.5l14 29q35 3 124 27t143 24q0 -15 -2 -138t-2.5 -249.5t0.5 -270t9.5 -248.5t22.5 -136q11 -17 33 -17q8 0 39 6t45 1
l-12 -27q-36 -3 -123 -30t-141 -27z" />
    <glyph glyph-name="v" unicode="v" horiz-adv-x="1091" 
d="M508 0h-4q0 1 1 3t1 3q-23 67 -76.5 228t-78.5 236t-63 185.5t-64 180t-46 116.5q-31 72 -66.5 99.5t-97.5 29.5v25h389v-25q-47 -5 -70.5 -29t-10.5 -63l260 -764q0 1 7.5 22t12.5 32q10 29 60 163t67.5 185t49 144.5t43.5 147.5t12 87q0 75 -93 75v25h328v-27
q-38 -2 -54 -5.5t-35.5 -19.5t-37.5 -50q-61 -118 -177.5 -440t-195.5 -564h-59l-2 -2v2z" />
    <glyph glyph-name="w" unicode="w" horiz-adv-x="1656" 
d="M893 981l258 -756q5 17 16 43q58 156 82.5 223.5t69 194.5t64 202.5t20.5 117.5q1 39 -29 56t-63 19v25h325v-25q-45 -5 -75 -21t-50 -56q-59 -121 -179.5 -452t-192.5 -552h-60l-2 -2v2h-4q0 1 1 3t1 3q-104 311 -246 715q-137 -359 -254 -721h-59l-2 -2v2h-4q0 1 1 3
t1 3q-23 67 -76.5 228t-78.5 236t-63 185.5t-64 180t-46 116.5q-30 70 -69.5 98.5t-102.5 30.5v25h394v-25q-16 -2 -27.5 -4.5t-26 -8.5t-20.5 -14.5t-11 -22.5t3 -32l264 -774q5 17 16 43q164 442 195 541q-8 22 -26 72t-25 71q-15 43 -30.5 69t-37 39t-41.5 16.5t-55 4.5
v25l256 -2l88 2h84v-25q-78 -8 -103 -30q-28 -25 -16 -70z" />
    <glyph glyph-name="x" unicode="x" horiz-adv-x="1024" 
d="M606 618q44 -83 128.5 -238.5t121.5 -225.5q41 -75 72.5 -100.5t93.5 -28.5v-25h-447v25q98 5 116.5 46.5t-38.5 147.5q-25 45 -72.5 135t-72.5 135q-5 -8 -45.5 -69t-56 -85.5t-44.5 -72t-45 -80.5t-24 -59q-31 -98 65 -98v-25h-338v27q42 4 59 7t44.5 20t54.5 50
q105 142 299 447q-135 254 -223 401q-44 71 -86.5 99t-106.5 30v25h424v-25q-49 -5 -73 -29t-4 -63q26 -50 81.5 -154.5t83.5 -158.5q159 269 181 328q17 42 -5.5 59.5t-84.5 17.5v25h344v-27q-53 -3 -80.5 -15.5t-65.5 -59.5q-81 -108 -256 -386z" />
    <glyph glyph-name="y" unicode="y" horiz-adv-x="1089" 
d="M512 6q-23 67 -76.5 228t-78.5 236t-63 185.5t-64 180t-46 116.5q-30 70 -68.5 97.5t-101.5 29.5v27h394v-25q-48 -9 -72 -26.5t-12 -53.5l264 -776q20 55 64 173t70.5 191.5t57.5 164.5t46 153.5t14 98.5q0 30 -28 52t-69 23v27h328v-27q-16 -2 -22.5 -3t-24 -6
t-28.5 -12.5t-25 -22t-23 -33.5q-52 -103 -147.5 -362t-177.5 -505q-12 -42 -18 -61.5t-20.5 -65t-24.5 -71t-27 -68.5t-32 -69.5t-35 -61t-41 -55.5t-45 -41.5t-51.5 -31t-56.5 -11.5q-32 0 -73 41q-16 15 -25.5 41.5t-8.5 48t13 22.5q2 0 28 -8.5t32 -9.5q48 -3 88.5 14.5
t67 42t51.5 67.5t37.5 71.5t29.5 74.5z" />
    <glyph glyph-name="z" unicode="z" horiz-adv-x="819" 
d="M735 -2h-735v45l614 1012q-387 -9 -424 -23q-16 -10 -34 -73t-33.5 -137t-18.5 -83l-26 15q1 27 6.5 160.5t5.5 189.5h686v-45l-586 -1012q411 9 445 23q16 10 34 72t34 137t18 83l27 -14q-1 -29 -7 -161.5t-6 -188.5z" />
    <glyph glyph-name="braceleft" unicode="{" horiz-adv-x="706" 
d="M49 741q57 11 108 35t90.5 69t39.5 101q0 52 -24.5 154.5t-24.5 154.5q0 74 34 140.5t89.5 113.5t125.5 77.5t144 39.5v-29q-102 -9 -175 -73t-73 -160q0 -53 20.5 -156.5t20.5 -156.5q0 -59 -27.5 -112.5t-73 -93.5t-98.5 -69t-110 -47q60 -20 111 -47.5t97.5 -66
t73.5 -91.5t27 -114q0 -53 -20.5 -157t-20.5 -157q0 -96 73 -161t175 -74v-27q-74 9 -144 39t-125.5 76.5t-89.5 113t-34 140.5q0 53 24.5 156t24.5 155q0 42 -22.5 78.5t-59 60.5t-76 40t-80.5 24v24z" />
    <glyph glyph-name="bar" unicode="|" horiz-adv-x="815" 
d="M358 1804h88v-2046h-88v2046z" />
    <glyph glyph-name="braceright" unicode="}" horiz-adv-x="706" 
d="M657 741v-24q-57 -11 -107.5 -34.5t-90 -68t-39.5 -100.5q0 -52 24.5 -155t24.5 -156q0 -74 -34 -140.5t-89.5 -113t-125.5 -76.5t-144 -39v27q102 9 175 74t73 161q0 53 -20.5 157t-20.5 157q0 61 27 114t73.5 91.5t97.5 66t111 47.5q-57 18 -110 47t-98.5 69t-73 93.5
t-27.5 112.5q0 53 20.5 156.5t20.5 156.5q0 96 -73 160t-175 73v29q74 -9 144 -39.5t125.5 -77.5t89.5 -113.5t34 -140.5q0 -52 -24.5 -154.5t-24.5 -154.5q0 -42 22 -78.5t58.5 -61.5t76 -41t80.5 -24z" />
    <glyph glyph-name="asciitilde" unicode="~" horiz-adv-x="1177" 
d="M932 768l35 -12q-33 -87 -96 -154t-142 -67q-44 0 -90.5 17.5t-79 38.5t-70.5 38.5t-67 17.5q-54 0 -102 -34.5t-68 -80.5l-35 13q28 84 94 152.5t144 68.5q45 0 90.5 -17.5t77 -39t69.5 -39t70 -17.5q52 0 101 35t69 80z" />
    <glyph glyph-name="exclamdown" unicode="&#xa1;" horiz-adv-x="528" 
d="M262 -20q-38 0 -61 22.5t-23 60.5q0 176 33.5 565.5t36.5 545.5h33q4 -150 35.5 -542t31.5 -569q0 -39 -23.5 -61t-62.5 -22zM276 1372q-42 0 -71 26.5t-29 65.5q0 41 28.5 68t71.5 27q44 0 72.5 -27.5t28.5 -67.5q0 -38 -29 -65t-72 -27z" />
    <glyph glyph-name="cent" unicode="&#xa2;" horiz-adv-x="933" 
d="M471 115v1011q-48 -10 -86 -49t-61 -92t-38.5 -118t-21.5 -123t-6 -111q-1 -69 9.5 -147t33.5 -159t67 -140t103 -72zM541 -55h-70v123q-104 12 -186 94.5t-125 207t-43 265.5t43 259.5t124.5 193.5t186.5 86v135h70v-135q99 -10 177 -70.5t111 -138.5
q20 -43 -17.5 -87.5t-76.5 -39.5q-8 36 -22 74t-37 85t-58.5 82t-76.5 47v-1011q41 12 76.5 47t58.5 81.5t37 85t22 74.5q38 5 76.5 -40t17.5 -87q-33 -77 -111 -137.5t-177 -70.5v-123z" />
    <glyph glyph-name="sterling" unicode="&#xa3;" horiz-adv-x="927" 
d="M49 621v53h176q-4 37 -13 117.5t-14 138t-5 106.5q0 99 24.5 188t72.5 161.5t128.5 115.5t183.5 43q112 0 202.5 -48.5t108.5 -129.5q10 -51 -21 -86.5t-69 -42.5q-48 -9 -81.5 13.5t-49.5 68.5q-27 70 29 151q-60 31 -131 31q-47 0 -84.5 -23.5t-61.5 -64.5t-41.5 -87.5
t-26.5 -102t-13 -97.5t-5 -84q0 -24 1.5 -169.5t-3.5 -198.5h469v-53h-471q-30 -334 -196 -471q41 6 123 6q69 0 200.5 -9.5t186.5 -9.5q61 0 105 8t81 28t57 59.5t21 97.5l49 12l-31 -342h-938v129q78 26 128 76.5t69.5 114.5t25.5 142t-4 159h-182z" />
    <glyph glyph-name="section" unicode="&#xa7;" horiz-adv-x="907" 
d="M266 995q-35 -56 -35 -123q0 -55 20 -98t51 -69.5t77.5 -50t89 -38t97 -35.5t91.5 -40q37 81 37 118q0 66 -26.5 114.5t-76 79t-98.5 50.5t-117.5 45t-109.5 47zM729 494q90 -74 90 -203q0 -103 -52.5 -180.5t-136 -115.5t-181.5 -36q-63 2 -127 21.5t-125 46.5t-88 34
q-20 29 -21 134t21 172q10 2 24 2q13 -69 40 -131.5t68 -116.5t102 -86.5t132 -32.5q100 0 159.5 60.5t59.5 168.5q0 69 -32.5 118.5t-84.5 77.5t-114.5 50.5t-125 48t-114.5 59.5t-84.5 95t-32.5 145q0 134 91 215q-91 81 -91 213q0 77 31.5 138.5t84 98t116 55t131.5 16.5
q73 -2 172 -36t135 -34q19 -71 15 -161t-19 -118q-15 -6 -27 -6q-20 124 -103 219t-200 95q-92 0 -151.5 -65t-59.5 -155q0 -69 32.5 -118.5t84.5 -78t114.5 -51t125 -47.5t114.5 -57.5t84.5 -90.5t32.5 -138q0 -135 -90 -225z" />
    <glyph glyph-name="dieresis" unicode="&#xa8;" horiz-adv-x="735" 
d="M446 1386q0 34 20.5 56t55.5 22q33 0 54.5 -24.5t21.5 -57.5q0 -34 -22 -58t-54 -24q-34 0 -55 26t-21 60zM160 1386q0 34 21 56t57 22q31 0 52 -24.5t21 -57.5q0 -34 -21 -58t-52 -24h-2q-34 0 -55 26t-21 60z" />
    <glyph glyph-name="copyright" unicode="&#xa9;" horiz-adv-x="1699" 
d="M174 596q0 -210 81 -372.5t236 -254.5t361 -92q205 0 360 92t236.5 254.5t81.5 372.5q0 209 -81.5 371.5t-236.5 255t-360 92.5q-206 0 -361 -92.5t-236 -255t-81 -371.5zM614 612q-1 -72 11 -144t38.5 -141t78 -112t120.5 -43q49 0 91 32.5t69.5 84t44 94t25.5 82.5
q38 5 76.5 -40t17.5 -87q-37 -85 -125.5 -148t-198.5 -63q-177 0 -283 133t-106 354q0 219 104.5 339t284.5 120q110 0 198.5 -63t125.5 -148q20 -43 -17.5 -87.5t-76.5 -39.5q-1 4 -4.5 15t-4.5 18q-13 43 -30.5 82.5t-44 82.5t-65 69t-81.5 26q-69 0 -120 -39.5
t-77.5 -104.5t-38.5 -132.5t-12 -139.5zM115 596q0 226 88.5 402t257 276t391.5 100q222 0 390.5 -100t257.5 -276t89 -402q0 -227 -89 -403t-257 -275.5t-391 -99.5q-224 0 -392 99.5t-256.5 275.5t-88.5 403z" />
    <glyph glyph-name="registered" unicode="&#xae;" horiz-adv-x="1179" 
d="M119 969q0 -221 126.5 -358.5t340.5 -137.5t341.5 137.5t127.5 358.5q0 219 -127.5 357t-341.5 138t-340.5 -138t-126.5 -357zM504 1268v-256q41 1 64.5 3t50 10t39.5 23t21.5 42t8.5 67q0 36 -15 60t-43 35t-55 14.5t-63 3.5q-4 0 -6 -2h-2zM55 969q0 248 144 404.5
t387 156.5t387.5 -156.5t144.5 -404.5q0 -250 -144.5 -405.5t-387.5 -155.5t-387 155.5t-144 405.5zM557 639h-205v39q33 0 43 8q15 46 15 203q0 282 -19 373q-8 8 -22 8h-29l-2 43q14 0 52.5 1t68.5 2t74.5 -1.5t78.5 -7.5t71 -17t61 -29.5t39.5 -46t15.5 -65.5
q0 -115 -121 -160q39 -18 63 -61.5t30.5 -85.5t14.5 -83t19 -52q7 -7 10 -7q11 0 31 27l33 -29q-42 -59 -103 -59q-41 0 -61.5 26t-27.5 66t-13.5 82.5t-28.5 82t-63 58.5q-25 15 -47 15h-33v-72q0 -191 12 -211q12 -8 45 -8z" />
    <glyph glyph-name="macron" unicode="&#xaf;" horiz-adv-x="778" 
d="M174 1198h449q26 0 26 -10q0 -17 -12 -45q-9 -21 -15 -25t-28 -4h-451q-16 0 -16 8q0 4 14 43l3 12t3 9.5t2.5 5.5t4.5 4t7.5 1t12.5 1z" />
    <glyph glyph-name="degree" unicode="&#xb0;" horiz-adv-x="858" 
d="M430 1384q-62 0 -103.5 -41t-41.5 -104q0 -62 41.5 -102.5t103.5 -40.5t102.5 40t40.5 103t-40.5 104t-102.5 41zM430 1458q98 0 161.5 -62t63.5 -157q0 -96 -63 -157.5t-162 -61.5q-100 0 -163.5 62t-63.5 159q0 95 63.5 156t163.5 61z" />
    <glyph glyph-name="acute" unicode="&#xb4;" horiz-adv-x="499" 
d="M74 1241l176 256q31 45 74 45q34 0 53 -22q15 -16 19 -39.5t-9.5 -50t-44.5 -44.5l-256 -155z" />
    <glyph glyph-name="periodcentered" unicode="&#xb7;" horiz-adv-x="757" 
d="M381 844q63 0 105 -42t42 -102q0 -61 -42 -102t-105 -41q-64 0 -108 41.5t-44 101.5t44 102t108 42z" />
    <glyph glyph-name="cedilla" unicode="&#xb8;" horiz-adv-x="655" 
d="M291 20h53l-96 -143q36 4 65 4q232 0 232 -145q0 -47 -20.5 -83.5t-49 -56t-65 -32t-62.5 -16t-47 -3.5t-48 4t-58 12.5t-51.5 26t-20.5 41.5q0 16 10.5 29.5t26.5 13.5q17 0 31.5 -14.5t24.5 -31.5t33.5 -31.5t55.5 -14.5q24 0 48.5 5.5t52.5 19.5t45.5 45t17.5 74
q0 31 -20 52.5t-52.5 31.5t-61.5 14t-59 4q-18 0 -47 -3t-41 -3q-16 0 -16 20q0 4 5 12.5t13 18.5l7 10z" />
    <glyph glyph-name="questiondown" unicode="&#xbf;" horiz-adv-x="759" 
d="M440 1249v-69q0 -90 -32 -178t-77 -162t-90.5 -149t-77.5 -169.5t-32 -193.5q0 -39 4.5 -74t20 -79t41 -75.5t72.5 -53.5t110 -23q28 0 57 4t62 14.5t54 33.5t21 56q0 31 -20.5 74t-26.5 63q-12 42 12.5 68t69.5 26q49 0 74 -37.5t25 -88.5q0 -63 -32 -113.5t-84 -81
t-112.5 -46t-122.5 -15.5q-168 0 -281.5 106.5t-113.5 271.5q0 71 24 139t62.5 123.5t85.5 110t93 107.5t84.5 107t62 118t22.5 131v55h45zM410 1362q-43 0 -72 27t-29 65q0 41 29 67.5t72 26.5q44 0 72 -27t28 -67q0 -39 -29 -65.5t-71 -26.5z" />
    <glyph glyph-name="Agrave" unicode="&#xc0;" horiz-adv-x="1126" 
d="M365 643h335q-112 445 -168 637q-57 -205 -167 -637zM713 598h-361q-6 -25 -18.5 -72.5t-16.5 -66.5l-11.5 -46t-15 -61t-16 -69t-15 -71t-11.5 -67t-5.5 -56t3.5 -38q4 -19 71 -24l-2 -27h-284v27q67 5 84 24q54 66 135 408l272 1081h92l273 -1081q81 -342 135 -408
q15 -19 84 -24v-27h-358l2 27q63 5 69 24q2 22 3 38t-5.5 56t-11.5 67t-15 71t-16 69t-15 61t-11 46q-6 21 -18 70t-17 69zM471 1888l176 -254l-12 -10l-258 154q-31 19 -44 45.5t-8.5 49.5t19.5 40q22 22 53 22q43 0 74 -47z" />
    <glyph glyph-name="Aacute" unicode="&#xc1;" horiz-adv-x="1126" 
d="M365 643h335q-112 445 -168 637q-57 -205 -167 -637zM713 598h-361q-6 -25 -18.5 -72.5t-16.5 -66.5l-11.5 -46t-15 -61t-16 -69t-15 -71t-11.5 -67t-5.5 -56t3.5 -38q4 -19 71 -24l-2 -27h-284v27q67 5 84 24q54 66 135 408l272 1081h92l273 -1081q81 -342 135 -408
q15 -19 84 -24v-27h-358l2 27q63 5 69 24q2 22 3 38t-5.5 56t-11.5 67t-15 71t-16 69t-15 61t-11 46q-6 21 -18 70t-17 69zM528 1681l-12 11l176 256q31 45 74 45q33 0 53 -23q15 -16 19 -39t-9.5 -49.5t-44.5 -44.5z" />
    <glyph glyph-name="Acircumflex" unicode="&#xc2;" horiz-adv-x="1126" 
d="M365 643h335q-112 445 -168 637q-57 -205 -167 -637zM713 598h-361q-6 -25 -18.5 -72.5t-16.5 -66.5l-11.5 -46t-15 -61t-16 -69t-15 -71t-11.5 -67t-5.5 -56t3.5 -38q4 -19 71 -24l-2 -27h-284v27q67 5 84 24q54 66 135 408l272 1081h92l273 -1081q81 -342 135 -408
q15 -19 84 -24v-27h-358l2 27q63 5 69 24q2 22 3 38t-5.5 56t-11.5 67t-15 71t-16 69t-15 61t-11 46q-6 21 -18 70t-17 69zM545 1862h45q14 0 23.5 -3.5t14 -7t13.5 -12.5l193 -211q12 -10 12 -24q0 -7 -21 -7q-23 0 -45 19l-211 164l-213 -164q-22 -19 -45 -19q-22 0 -22 7
q0 12 12 24l195 211q23 23 49 23z" />
    <glyph glyph-name="Atilde" unicode="&#xc3;" horiz-adv-x="1126" 
d="M365 643h335q-112 445 -168 637q-57 -205 -167 -637zM713 598h-361q-6 -25 -18.5 -72.5t-16.5 -66.5l-11.5 -46t-15 -61t-16 -69t-15 -71t-11.5 -67t-5.5 -56t3.5 -38q4 -19 71 -24l-2 -27h-284v27q67 5 84 24q54 66 135 408l272 1081h92l273 -1081q81 -342 135 -408
q15 -19 84 -24v-27h-358l2 27q63 5 69 24q2 22 3 38t-5.5 56t-11.5 67t-15 71t-16 69t-15 61t-11 46q-6 21 -18 70t-17 69zM690 1651q-37 0 -79 24.5t-72.5 54t-68 54t-67.5 24.5q-36 -3 -63.5 -31.5t-58.5 -103.5l-19 15q6 64 67 132t117 68q38 0 81 -24t74 -53.5
t67.5 -53.5t62.5 -24q82 0 125 135l18 -17q-8 -68 -68 -134t-116 -66z" />
    <glyph glyph-name="Adieresis" unicode="&#xc4;" horiz-adv-x="1126" 
d="M365 643h335q-112 445 -168 637q-57 -205 -167 -637zM713 598h-361q-6 -25 -18.5 -72.5t-16.5 -66.5l-11.5 -46t-15 -61t-16 -69t-15 -71t-11.5 -67t-5.5 -56t3.5 -38q4 -19 71 -24l-2 -27h-284v27q67 5 84 24q54 66 135 408l272 1081h92l273 -1081q81 -342 135 -408
q15 -19 84 -24v-27h-358l2 27q63 5 69 24q2 22 3 38t-5.5 56t-11.5 67t-15 71t-16 69t-15 61t-11 46q-6 21 -18 70t-17 69zM324 1706q0 35 20.5 56.5t56.5 21.5q32 0 53 -24.5t21 -57.5q0 -34 -21.5 -58t-52.5 -24h-2q-34 0 -54.5 26t-20.5 60zM610 1706q0 34 20.5 56
t55.5 22q33 0 54.5 -24.5t21.5 -57.5q0 -34 -22 -58t-54 -24q-34 0 -55 26t-21 60z" />
    <glyph glyph-name="Aring" unicode="&#xc5;" horiz-adv-x="1126" 
d="M365 643h335q-112 445 -168 637q-57 -205 -167 -637zM563 1640h2q31 0 53.5 23t22.5 55q0 33 -22.5 55.5t-55.5 22.5t-55.5 -22.5t-22.5 -55.5q0 -32 23 -55t55 -23zM713 598h-361q-6 -25 -18.5 -72.5t-16.5 -66.5l-11.5 -46t-15 -61t-16 -69t-15 -71t-11.5 -67t-5.5 -56
t3.5 -38q4 -19 71 -24l-2 -27h-284v27q67 5 84 24q54 66 135 408l272 1081h92l273 -1081q81 -342 135 -408q15 -19 84 -24v-27h-358l2 27q63 5 69 24q2 22 3 38t-5.5 56t-11.5 67t-15 71t-16 69t-15 61t-11 46q-6 21 -18 70t-17 69zM563 1579h-2q-57 0 -97 40.5t-40 98.5
q0 59 40.5 99.5t98.5 40.5t98.5 -40.5t40.5 -99.5q0 -58 -40 -98.5t-99 -40.5z" />
    <glyph glyph-name="AE" unicode="&#xc6;" horiz-adv-x="1675" 
d="M870 1272q-99 -175 -342 -627h344v127q0 42 1 157t0.5 196t-3.5 147zM1010 778l-9 -317q0 -213 23 -365q9 -47 63 -47q25 1 102 2.5t114.5 2.5t91.5 3t83.5 6t41.5 9q16 9 35.5 64.5t38.5 129.5t20 76l28 -14q-1 -39 -15.5 -158t-14.5 -172l-584 2l-285 -2l7 29
q65 4 79 26q43 82 43 541h-370q-56 -102 -70 -133q-186 -347 -186 -408q0 -21 63 -26l2 -27h-286l-2 27q67 5 94 26q14 13 32 36.5t40 58.5t39.5 64t42.5 74.5t36.5 66.5t34 63.5t23.5 44.5l495 938q-5 65 -23 91t-77 26v24h809q0 -55 4.5 -145t5.5 -121l-29 -14
q-2 6 -15 60.5t-27.5 96t-30.5 51.5q-36 17 -390 21q-48 3 -61 -35l-16 -627q266 7 313 27q22 10 37 62.5t24.5 115.5t12.5 72l28 -4q-10 -297 0 -594l-28 -2q-3 9 -12.5 72t-24.5 115.5t-37 62.5q-40 17 -281 23q-21 1 -32 1z" />
    <glyph glyph-name="Ccedilla" unicode="&#xc7;" horiz-adv-x="1038" 
d="M500 -27l-66 -96q36 4 66 4q231 0 231 -145q0 -47 -20.5 -83.5t-49 -56t-65 -32t-62.5 -16t-47 -3.5t-48 4t-58 12.5t-51.5 26t-20.5 41.5q0 16 10.5 29.5t26.5 13.5q17 0 31.5 -14.5t25 -31.5t34 -31.5t55.5 -14.5q18 0 37.5 3t42.5 12.5t41 24.5t30 42t12 62
q0 31 -20 52.5t-52 31.5t-61 14t-59 4q-19 0 -47.5 -3t-40.5 -3q-17 0 -17 20q0 4 5 12.5t13 18.5l7 10l68 99q-190 35 -307 242t-117 556q0 196 38.5 347t107.5 243.5t160.5 139t201.5 46.5q169 0 290 -106l41 106h39l-18 -376h-41q-99 333 -311 333q-90 0 -159 -56.5
t-111 -157t-63.5 -231.5t-21.5 -288q0 -55 3 -112t12.5 -134.5t24.5 -145.5t42.5 -137t63.5 -118t90 -80t119 -31q149 2 240.5 105.5t150.5 351.5h53q-15 -83 -36 -151.5t-58 -136t-84.5 -113.5t-118.5 -74.5t-158 -28.5h-24z" />
    <glyph glyph-name="Egrave" unicode="&#xc8;" horiz-adv-x="940" 
d="M258 778q0 -206 9.5 -401t23.5 -281q6 -47 63 -47q25 1 102 2.5t114 2.5t91 3.5t83 6t40 8.5q16 9 35.5 64.5t39.5 130t20 75.5l28 -14q-1 -39 -15.5 -158t-14.5 -172l-609 2h-241v27q3 0 13.5 1t15 1t13.5 2t14.5 4t11.5 6t9 10q9 14 15.5 44t10.5 80.5t6 96t2.5 120.5
t1 122.5t0 134t-0.5 123.5t0.5 122.5t0 133t-1 122t-2.5 120t-6 95.5t-10.5 80t-15.5 44q-3 6 -9 10t-11.5 6t-14.5 4t-13.5 2t-15 1t-13.5 1v27h809q0 -57 3.5 -149t4.5 -117l-27 -14q-4 10 -16.5 62t-28 94t-31.5 52q-36 17 -389 21q-55 3 -61 -45q-30 -171 -33 -617
q283 7 330 27q23 10 38 62.5t24 115.5t12 72l28 -4q-7 -297 0 -594l-28 -2q-3 9 -12 72t-24 115.5t-38 62.5q-49 20 -330 24zM627 1692l-13 -11l-258 154q-31 19 -43.5 45.5t-8 49t19.5 40.5q23 23 53 23q43 0 74 -47z" />
    <glyph glyph-name="Eacute" unicode="&#xc9;" horiz-adv-x="940" 
d="M258 778q0 -206 9.5 -401t23.5 -281q6 -47 63 -47q25 1 102 2.5t114 2.5t91 3.5t83 6t40 8.5q16 9 35.5 64.5t39.5 130t20 75.5l28 -14q-1 -39 -15.5 -158t-14.5 -172l-609 2h-241v27q3 0 13.5 1t15 1t13.5 2t14.5 4t11.5 6t9 10q9 14 15.5 44t10.5 80.5t6 96t2.5 120.5
t1 122.5t0 134t-0.5 123.5t0.5 122.5t0 133t-1 122t-2.5 120t-6 95.5t-10.5 80t-15.5 44q-3 6 -9 10t-11.5 6t-14.5 4t-13.5 2t-15 1t-13.5 1v27h809q0 -57 3.5 -149t4.5 -117l-27 -14q-4 10 -16.5 62t-28 94t-31.5 52q-36 17 -389 21q-55 3 -61 -45q-30 -171 -33 -617
q283 7 330 27q23 10 38 62.5t24 115.5t12 72l28 -4q-7 -297 0 -594l-28 -2q-3 9 -12 72t-24 115.5t-38 62.5q-49 20 -330 24zM309 1561l176 256q31 45 74 45q33 0 53 -23q15 -16 19 -39t-9 -49.5t-44 -44.5l-256 -156z" />
    <glyph glyph-name="Ecircumflex" unicode="&#xca;" horiz-adv-x="940" 
d="M258 778q0 -206 9.5 -401t23.5 -281q6 -47 63 -47q25 1 102 2.5t114 2.5t91 3.5t83 6t40 8.5q16 9 35.5 64.5t39.5 130t20 75.5l28 -14q-1 -39 -15.5 -158t-14.5 -172l-609 2h-241v27q3 0 13.5 1t15 1t13.5 2t14.5 4t11.5 6t9 10q9 14 15.5 44t10.5 80.5t6 96t2.5 120.5
t1 122.5t0 134t-0.5 123.5t0.5 122.5t0 133t-1 122t-2.5 120t-6 95.5t-10.5 80t-15.5 44q-3 6 -9 10t-11.5 6t-14.5 4t-13.5 2t-15 1t-13.5 1v27h809q0 -57 3.5 -149t4.5 -117l-27 -14q-4 10 -16.5 62t-28 94t-31.5 52q-36 17 -389 21q-55 3 -61 -45q-30 -171 -33 -617
q283 7 330 27q23 10 38 62.5t24 115.5t12 72l28 -4q-7 -297 0 -594l-28 -2q-3 9 -12 72t-24 115.5t-38 62.5q-49 20 -330 24zM442 1950h45q29 0 52 -23l192 -211q12 -10 12 -24q0 -6 -20 -6q-24 0 -45 18l-211 164l-213 -164q-21 -18 -45 -18q-23 0 -23 6q0 11 13 24
l194 211q23 23 49 23z" />
    <glyph glyph-name="Edieresis" unicode="&#xcb;" horiz-adv-x="940" 
d="M258 778q0 -206 9.5 -401t23.5 -281q6 -47 63 -47q25 1 102 2.5t114 2.5t91 3.5t83 6t40 8.5q16 9 35.5 64.5t39.5 130t20 75.5l28 -14q-1 -39 -15.5 -158t-14.5 -172l-609 2h-241v27q3 0 13.5 1t15 1t13.5 2t14.5 4t11.5 6t9 10q9 14 15.5 44t10.5 80.5t6 96t2.5 120.5
t1 122.5t0 134t-0.5 123.5t0.5 122.5t0 133t-1 122t-2.5 120t-6 95.5t-10.5 80t-15.5 44q-3 6 -9 10t-11.5 6t-14.5 4t-13.5 2t-15 1t-13.5 1v27h809q0 -57 3.5 -149t4.5 -117l-27 -14q-4 10 -16.5 62t-28 94t-31.5 52q-36 17 -389 21q-55 3 -61 -45q-30 -171 -33 -617
q283 7 330 27q23 10 38 62.5t24 115.5t12 72l28 -4q-7 -297 0 -594l-28 -2q-3 9 -12 72t-24 115.5t-38 62.5q-49 20 -330 24zM563 1794q0 34 20.5 56t55.5 22q33 0 54.5 -24.5t21.5 -57.5q0 -34 -22 -58t-54 -24q-34 0 -55 26t-21 60zM276 1794q0 34 21 56t57 22
q32 0 53 -24.5t21 -57.5q0 -34 -21.5 -58t-52.5 -24h-2q-34 0 -55 26t-21 60z" />
    <glyph glyph-name="Igrave" unicode="&#xcc;" horiz-adv-x="399" 
d="M25 1513v27h350v-27q-3 0 -13.5 -1t-15 -1t-14 -2t-15 -4t-11.5 -6t-9 -10q-13 -20 -21 -72.5t-10.5 -141t-3 -157.5t0.5 -187.5t1 -164.5q0 -52 -1 -171.5t-0.5 -186t3 -151.5t10.5 -134.5t21 -69.5q16 -26 78 -26v-27h-350v27q61 0 77 26q9 14 16 44t10.5 78.5t6 96
t3 119t0.5 122t-0.5 131.5t-0.5 124q0 24 0.5 159t0 191.5t-3.5 153.5t-11 147.5t-21 69.5q-3 6 -9 10t-11.5 6t-14.5 4t-13.5 2t-15 1t-13.5 1zM346 1698l-12 -10l-258 153q-31 19 -44 45.5t-8.5 49.5t19.5 40q23 23 53 23q43 0 74 -47z" />
    <glyph glyph-name="Iacute" unicode="&#xcd;" horiz-adv-x="399" 
d="M25 1513v27h350v-27q-3 0 -13.5 -1t-15 -1t-14 -2t-15 -4t-11.5 -6t-9 -10q-13 -20 -21 -72.5t-10.5 -141t-3 -157.5t0.5 -187.5t1 -164.5q0 -52 -1 -171.5t-0.5 -186t3 -151.5t10.5 -134.5t21 -69.5q16 -26 78 -26v-27h-350v27q61 0 77 26q9 14 16 44t10.5 78.5t6 96
t3 119t0.5 122t-0.5 131.5t-0.5 124q0 24 0.5 159t0 191.5t-3.5 153.5t-11 147.5t-21 69.5q-3 6 -9 10t-11.5 6t-14.5 4t-13.5 2t-15 1t-13.5 1zM131 1677l176 256q31 45 74 45q34 0 53 -22q15 -16 19 -39t-9.5 -49.5t-44.5 -44.5l-256 -156z" />
    <glyph glyph-name="Icircumflex" unicode="&#xce;" horiz-adv-x="399" 
d="M25 1513v27h350v-27q-3 0 -13.5 -1t-15 -1t-14 -2t-15 -4t-11.5 -6t-9 -10q-13 -20 -21 -72.5t-10.5 -141t-3 -157.5t0.5 -187.5t1 -164.5q0 -52 -1 -171.5t-0.5 -186t3 -151.5t10.5 -134.5t21 -69.5q16 -26 78 -26v-27h-350v27q61 0 77 26q9 14 16 44t10.5 78.5t6 96
t3 119t0.5 122t-0.5 131.5t-0.5 124q0 24 0.5 159t0 191.5t-3.5 153.5t-11 147.5t-21 69.5q-3 6 -9 10t-11.5 6t-14.5 4t-13.5 2t-15 1t-13.5 1zM178 1948h45q14 0 23.5 -3.5t14 -7t13.5 -12.5l193 -211q12 -10 12 -24q0 -7 -20 -7q-23 0 -45 19l-211 164l-213 -164
q-22 -19 -45 -19t-23 7q0 12 12 24l195 211q23 23 49 23z" />
    <glyph glyph-name="Idieresis" unicode="&#xcf;" horiz-adv-x="399" 
d="M25 1513v27h350v-27q-3 0 -13.5 -1t-15 -1t-14 -2t-15 -4t-11.5 -6t-9 -10q-13 -20 -21 -72.5t-10.5 -141t-3 -157.5t0.5 -187.5t1 -164.5q0 -52 -1 -171.5t-0.5 -186t3 -151.5t10.5 -134.5t21 -69.5q16 -26 78 -26v-27h-350v27q61 0 77 26q9 14 16 44t10.5 78.5t6 96
t3 119t0.5 122t-0.5 131.5t-0.5 124q0 24 0.5 159t0 191.5t-3.5 153.5t-11 147.5t-21 69.5q-3 6 -9 10t-11.5 6t-14.5 4t-13.5 2t-15 1t-13.5 1zM268 1808q0 34 20.5 56t55.5 22q33 0 54.5 -24.5t21.5 -57.5q0 -34 -22 -58t-54 -24q-34 0 -55 26t-21 60zM-18 1808
q0 35 20.5 56.5t56.5 21.5q32 0 53 -24.5t21 -57.5q0 -34 -21.5 -58t-52.5 -24h-2q-34 0 -54.5 26t-20.5 60z" />
    <glyph glyph-name="Ntilde" unicode="&#xd1;" horiz-adv-x="1042" 
d="M737 1513v27h283v-27q-62 0 -78 -26q-13 -20 -21.5 -71.5t-11 -143t-3.5 -154.5t0 -188.5t1 -163.5v-766h-57l-657 1411l4 -645q0 -55 -1 -172t-1 -185t2.5 -152t10.5 -134t21 -70q16 -26 78 -26v-27h-282v27q61 0 77 26q9 14 16 44t10.5 78.5t6 96t3 119t0.5 122
t-0.5 131.5t-0.5 124q0 24 0.5 159t0 191t-3.5 152.5t-11 147t-21 69.5q-16 26 -77 26v27h270l555 -1206v434q0 32 0.5 114t0 129.5t-1 122.5t-2.5 123t-6 100t-10.5 84t-15.5 46q-16 26 -78 26zM643 1579q-31 0 -63.5 16.5t-60.5 39.5t-54.5 46t-55 39.5t-53.5 16.5
q-37 -3 -65 -31.5t-58 -103.5l-18 14q6 64 67 132.5t117 68.5q38 0 81 -24.5t74 -53.5t67.5 -53.5t62.5 -24.5q82 0 125 135l18 -16q-8 -68 -68 -134.5t-116 -66.5z" />
    <glyph glyph-name="Ograve" unicode="&#xd2;" horiz-adv-x="1071" 
d="M891 778q0 159 -21.5 291t-64 232t-111.5 156t-159 56t-159 -56.5t-111 -157.5t-63.5 -232.5t-21.5 -288.5q0 -160 21.5 -295.5t63.5 -241.5t111 -166.5t159 -60.5q89 0 158.5 61t112 167.5t64 242t21.5 293.5zM535 1554q110 0 201 -46t160.5 -137.5t108.5 -243
t39 -349.5q0 -196 -39 -351t-108 -253t-161 -149.5t-201 -51.5t-201 51.5t-160.5 149.5t-107.5 253t-39 351t38.5 347t107.5 243.5t160.5 139t201.5 46.5zM504 1939l176 -253l-12 -11l-258 154q-31 19 -44 45.5t-8.5 49.5t19.5 40q23 23 53 23q42 0 74 -48z" />
    <glyph glyph-name="Oacute" unicode="&#xd3;" horiz-adv-x="1071" 
d="M891 778q0 159 -21.5 291t-64 232t-111.5 156t-159 56t-159 -56.5t-111 -157.5t-63.5 -232.5t-21.5 -288.5q0 -160 21.5 -295.5t63.5 -241.5t111 -166.5t159 -60.5q89 0 158.5 61t112 167.5t64 242t21.5 293.5zM535 1554q110 0 201 -46t160.5 -137.5t108.5 -243
t39 -349.5q0 -196 -39 -351t-108 -253t-161 -149.5t-201 -51.5t-201 51.5t-160.5 149.5t-107.5 253t-39 351t38.5 347t107.5 243.5t160.5 139t201.5 46.5zM408 1651l-13 10l176 256q31 45 74 45q33 0 53 -23q15 -16 19 -39t-9 -49.5t-44 -44.5z" />
    <glyph glyph-name="Ocircumflex" unicode="&#xd4;" horiz-adv-x="1071" 
d="M891 778q0 159 -21.5 291t-64 232t-111.5 156t-159 56t-159 -56.5t-111 -157.5t-63.5 -232.5t-21.5 -288.5q0 -160 21.5 -295.5t63.5 -241.5t111 -166.5t159 -60.5q89 0 158.5 61t112 167.5t64 242t21.5 293.5zM535 1554q110 0 201 -46t160.5 -137.5t108.5 -243
t39 -349.5q0 -196 -39 -351t-108 -253t-161 -149.5t-201 -51.5t-201 51.5t-160.5 149.5t-107.5 253t-39 351t38.5 347t107.5 243.5t160.5 139t201.5 46.5zM524 1950h45q29 0 52 -23l192 -211q12 -10 12 -24q0 -6 -20 -6q-24 0 -45 18l-211 164l-213 -164q-21 -18 -45 -18
q-23 0 -23 6q0 11 13 24l194 211q23 23 49 23z" />
    <glyph glyph-name="Otilde" unicode="&#xd5;" horiz-adv-x="1071" 
d="M891 778q0 159 -21.5 291t-64 232t-111.5 156t-159 56t-159 -56.5t-111 -157.5t-63.5 -232.5t-21.5 -288.5q0 -160 21.5 -295.5t63.5 -241.5t111 -166.5t159 -60.5q89 0 158.5 61t112 167.5t64 242t21.5 293.5zM535 1554q110 0 201 -46t160.5 -137.5t108.5 -243
t39 -349.5q0 -196 -39 -351t-108 -253t-161 -149.5t-201 -51.5t-201 51.5t-160.5 149.5t-107.5 253t-39 351t38.5 347t107.5 243.5t160.5 139t201.5 46.5zM657 1636q-37 0 -78.5 24.5t-72.5 54.5t-68 54.5t-67 24.5q-37 -3 -65 -31.5t-58 -103.5l-19 14q6 64 67.5 132.5
t117.5 68.5q38 0 80.5 -24.5t74 -53.5t67.5 -53.5t62 -24.5q82 0 125 135l19 -16q-8 -68 -68.5 -134.5t-116.5 -66.5z" />
    <glyph glyph-name="Odieresis" unicode="&#xd6;" horiz-adv-x="1071" 
d="M891 778q0 159 -21.5 291t-64 232t-111.5 156t-159 56t-159 -56.5t-111 -157.5t-63.5 -232.5t-21.5 -288.5q0 -160 21.5 -295.5t63.5 -241.5t111 -166.5t159 -60.5q89 0 158.5 61t112 167.5t64 242t21.5 293.5zM535 1554q110 0 201 -46t160.5 -137.5t108.5 -243
t39 -349.5q0 -196 -39 -351t-108 -253t-161 -149.5t-201 -51.5t-201 51.5t-160.5 149.5t-107.5 253t-39 351t38.5 347t107.5 243.5t160.5 139t201.5 46.5zM315 1706q0 34 21 56t57 22q32 0 53 -24.5t21 -57.5q0 -34 -21.5 -58t-52.5 -24h-2q-34 0 -55 26t-21 60zM602 1706
q0 34 20.5 56t55.5 22q33 0 54.5 -24.5t21.5 -57.5q0 -34 -22 -58t-54 -24q-34 0 -55 26t-21 60z" />
    <glyph glyph-name="Oslash" unicode="&#xd8;" horiz-adv-x="1128" 
d="M264 322l574 968q-91 223 -275 223q-119 0 -200.5 -100t-117.5 -261.5t-36 -373.5q0 -264 55 -456zM866 1210l-571 -970q93 -226 268 -226q89 0 159 61t112.5 167t64 242t21.5 294q0 255 -54 432zM231 135l-125 -213h-77l161 273q-135 214 -135 583q0 196 38.5 347
t107.5 243.5t160.5 139t201.5 46.5q208 0 340 -155l123 209l76 -2l-158 -265q129 -200 129 -563q0 -196 -39 -351t-108.5 -253t-161.5 -149.5t-201 -51.5q-201 0 -332 162z" />
    <glyph glyph-name="Ugrave" unicode="&#xd9;" horiz-adv-x="1128" 
d="M137 768q0 28 0.5 159.5t0 190.5t-3 153.5t-10.5 145.5t-20 70q-18 26 -79 26v27h358v-27q-60 0 -76 -26q-13 -20 -21 -72.5t-10.5 -140.5t-3 -156.5t0.5 -187t1 -164.5q0 -23 -1 -72q-2 -247 19 -362q48 -271 246 -298q23 -3 48 -3q242 0 309 223q19 63 28 159t10 155
t1 200v174q4 483 -37 545q-16 26 -78 26v27h287v-27q-62 0 -78 -26q-39 -59 -35 -502q0 -39 1 -112.5t1 -106.5v-60q2 -52 0.5 -104t-2.5 -103.5t-8 -101.5t-15.5 -96.5t-25.5 -88.5t-38.5 -78t-54 -65.5t-72 -50.5t-92.5 -32t-116 -11q-64 0 -118 11.5t-95 32t-74 50
t-55 66t-39.5 79t-26.5 89.5t-15.5 97t-8 102t-3 105t0.5 105v56zM762 1698l-12 -10l-258 153q-31 19 -44 45.5t-8.5 49.5t19.5 40q23 23 53 23q43 0 74 -47z" />
    <glyph glyph-name="Uacute" unicode="&#xda;" horiz-adv-x="1128" 
d="M137 768q0 28 0.5 159.5t0 190.5t-3 153.5t-10.5 145.5t-20 70q-18 26 -79 26v27h358v-27q-60 0 -76 -26q-13 -20 -21 -72.5t-10.5 -140.5t-3 -156.5t0.5 -187t1 -164.5q0 -23 -1 -72q-2 -247 19 -362q48 -271 246 -298q23 -3 48 -3q242 0 309 223q19 63 28 159t10 155
t1 200v174q4 483 -37 545q-16 26 -78 26v27h287v-27q-62 0 -78 -26q-39 -59 -35 -502q0 -39 1 -112.5t1 -106.5v-60q2 -52 0.5 -104t-2.5 -103.5t-8 -101.5t-15.5 -96.5t-25.5 -88.5t-38.5 -78t-54 -65.5t-72 -50.5t-92.5 -32t-116 -11q-64 0 -118 11.5t-95 32t-74 50
t-55 66t-39.5 79t-26.5 89.5t-15.5 97t-8 102t-3 105t0.5 105v56zM504 1645l176 256q31 45 74 45q33 0 53 -23q15 -16 19 -39t-9.5 -49.5t-44.5 -44.5l-256 -156z" />
    <glyph glyph-name="Ucircumflex" unicode="&#xdb;" horiz-adv-x="1128" 
d="M137 768q0 28 0.5 159.5t0 190.5t-3 153.5t-10.5 145.5t-20 70q-18 26 -79 26v27h358v-27q-60 0 -76 -26q-13 -20 -21 -72.5t-10.5 -140.5t-3 -156.5t0.5 -187t1 -164.5q0 -23 -1 -72q-2 -247 19 -362q48 -271 246 -298q23 -3 48 -3q242 0 309 223q19 63 28 159t10 155
t1 200v174q4 483 -37 545q-16 26 -78 26v27h287v-27q-62 0 -78 -26q-39 -59 -35 -502q0 -39 1 -112.5t1 -106.5v-60q2 -52 0.5 -104t-2.5 -103.5t-8 -101.5t-15.5 -96.5t-25.5 -88.5t-38.5 -78t-54 -65.5t-72 -50.5t-92.5 -32t-116 -11q-64 0 -118 11.5t-95 32t-74 50
t-55 66t-39.5 79t-26.5 89.5t-15.5 97t-8 102t-3 105t0.5 105v56zM563 1925h45q14 0 23.5 -3t14 -6.5t13.5 -12.5l193 -211q12 -10 12 -25q0 -6 -20 -6q-24 0 -45 18l-211 164l-213 -164q-21 -18 -45 -18q-23 0 -23 6q0 13 12 25l195 211q22 22 49 22z" />
    <glyph glyph-name="Udieresis" unicode="&#xdc;" horiz-adv-x="1128" 
d="M137 768q0 28 0.5 159.5t0 190.5t-3 153.5t-10.5 145.5t-20 70q-18 26 -79 26v27h358v-27q-60 0 -76 -26q-13 -20 -21 -72.5t-10.5 -140.5t-3 -156.5t0.5 -187t1 -164.5q0 -23 -1 -72q-2 -247 19 -362q48 -271 246 -298q23 -3 48 -3q242 0 309 223q19 63 28 159t10 155
t1 200v174q4 483 -37 545q-16 26 -78 26v27h287v-27q-62 0 -78 -26q-39 -59 -35 -502q0 -39 1 -112.5t1 -106.5v-60q2 -52 0.5 -104t-2.5 -103.5t-8 -101.5t-15.5 -96.5t-25.5 -88.5t-38.5 -78t-54 -65.5t-72 -50.5t-92.5 -32t-116 -11q-64 0 -118 11.5t-95 32t-74 50
t-55 66t-39.5 79t-26.5 89.5t-15.5 97t-8 102t-3 105t0.5 105v56zM631 1706q0 34 20.5 56t55.5 22q33 0 54 -24.5t21 -57.5q0 -34 -21.5 -58t-53.5 -24q-34 0 -55 26t-21 60zM344 1706q0 34 21 56t57 22q32 0 53 -24.5t21 -57.5q0 -34 -21.5 -58t-52.5 -24h-2q-34 0 -55 26
t-21 60z" />
    <glyph glyph-name="germandbls" unicode="&#xdf;" horiz-adv-x="1052" 
d="M670 1266q-10 101 -64.5 161t-132.5 60q-39 0 -70 -14.5t-50.5 -36t-34 -56.5t-21.5 -65t-11 -73t-4.5 -68.5t-0.5 -63.5l-2 -651v-44.5v-63t0.5 -67t2.5 -72.5t4.5 -63t7.5 -56t11 -34q15 -31 80 -34v-25h-340v25q65 3 80 34q5 9 9 25t7 38.5t5 45.5t3 53.5t2 54t1 55.5
v49.5v45v33.5v239q0 62 -1 168t-1 140q0 57 2 102t9.5 102t21 100.5t37.5 87.5t56.5 72t82 46t110.5 18q138 0 234 -76t106 -196q4 -51 -7.5 -92.5t-39.5 -73.5t-47 -48t-55 -40q-9 -6 -13 -9q-2 -2 -20 -14t-23 -15.5t-22 -16t-23 -18.5l-20 -20t-20 -23.5t-15.5 -24.5
t-13.5 -28.5t-7.5 -31t-3.5 -35.5q0 -54 27.5 -89t71.5 -51.5t97.5 -28.5t107 -28.5t98 -42t73 -77t29.5 -127.5q0 -144 -88 -238t-219 -94q-54 3 -101.5 17.5t-98 38.5t-66.5 30q-17 33 -17 143q0 114 17 172q6 2 18 2q28 -175 103.5 -270.5t187.5 -95.5q78 0 123.5 51.5
t42.5 134.5q-2 62 -29 107.5t-68.5 73.5t-91.5 51t-100 47.5t-92 55t-70.5 81.5t-32.5 119q-3 63 20.5 117.5t67.5 89.5q101 78 145 151.5t36 153.5z" />
    <glyph glyph-name="agrave" unicode="&#xe0;" 
d="M664 297q4 47 4.5 100t-1 123t-1.5 101v47q-23 -53 -81 -96t-122.5 -73.5t-127.5 -63.5t-106.5 -83t-48.5 -116q-7 -87 51.5 -135t149.5 -48q108 0 191 69.5t92 174.5zM659 -23l3 181q-54 -88 -140.5 -136.5t-189.5 -48.5q-57 0 -110.5 15t-97.5 45t-69.5 80.5
t-21.5 115.5q3 60 33.5 106.5t78.5 77t106.5 56.5t121.5 51t119 53t102.5 71.5t69.5 98.5q-1 58 -6 102t-20.5 94t-40.5 82t-69 53.5t-104 21.5q-231 0 -248 -361q-23 -26 -74 -26q-24 0 -40.5 13t-16.5 36q0 170 118 274.5t286 104.5q140 0 236 -85.5t106 -224.5
q4 -41 4 -125q0 -13 -1.5 -96.5t-1 -153t2.5 -154.5t9.5 -144t20.5 -78q10 -15 33 -15q12 0 33 3.5t31 3.5q14 0 18 -2l-12 -27q-40 -4 -129 -33t-140 -29zM455 1477l176 -254l-13 -11l-258 154q-31 19 -43.5 45.5t-8 49t19.5 40.5q23 23 53 23q43 0 74 -47z" />
    <glyph glyph-name="aacute" unicode="&#xe1;" 
d="M664 297q4 47 4.5 100t-1 123t-1.5 101v47q-23 -53 -81 -96t-122.5 -73.5t-127.5 -63.5t-106.5 -83t-48.5 -116q-7 -87 51.5 -135t149.5 -48q108 0 191 69.5t92 174.5zM659 -23l3 181q-54 -88 -140.5 -136.5t-189.5 -48.5q-57 0 -110.5 15t-97.5 45t-69.5 80.5
t-21.5 115.5q3 60 33.5 106.5t78.5 77t106.5 56.5t121.5 51t119 53t102.5 71.5t69.5 98.5q-1 58 -6 102t-20.5 94t-40.5 82t-69 53.5t-104 21.5q-231 0 -248 -361q-23 -26 -74 -26q-24 0 -40.5 13t-16.5 36q0 170 118 274.5t286 104.5q140 0 236 -85.5t106 -224.5
q4 -41 4 -125q0 -13 -1.5 -96.5t-1 -153t2.5 -154.5t9.5 -144t20.5 -78q10 -15 33 -15q12 0 33 3.5t31 3.5q14 0 18 -2l-12 -27q-40 -4 -129 -33t-140 -29zM319 1231l-12 10l176 256q31 45 74 45q34 0 53 -22q15 -16 19 -39.5t-9.5 -50t-44.5 -44.5z" />
    <glyph glyph-name="acircumflex" unicode="&#xe2;" 
d="M664 297q4 47 4.5 100t-1 123t-1.5 101v47q-23 -53 -81 -96t-122.5 -73.5t-127.5 -63.5t-106.5 -83t-48.5 -116q-7 -87 51.5 -135t149.5 -48q108 0 191 69.5t92 174.5zM659 -23l3 181q-54 -88 -140.5 -136.5t-189.5 -48.5q-57 0 -110.5 15t-97.5 45t-69.5 80.5
t-21.5 115.5q3 60 33.5 106.5t78.5 77t106.5 56.5t121.5 51t119 53t102.5 71.5t69.5 98.5q-1 58 -6 102t-20.5 94t-40.5 82t-69 53.5t-104 21.5q-231 0 -248 -361q-23 -26 -74 -26q-24 0 -40.5 13t-16.5 36q0 170 118 274.5t286 104.5q140 0 236 -85.5t106 -224.5
q4 -41 4 -125q0 -13 -1.5 -96.5t-1 -153t2.5 -154.5t9.5 -144t20.5 -78q10 -15 33 -15q12 0 33 3.5t31 3.5q14 0 18 -2l-12 -27q-40 -4 -129 -33t-140 -29zM440 1464h45q30 0 52 -22l192 -211q12 -10 12 -25q0 -6 -20 -6q-23 0 -45 19l-211 163l-213 -163q-22 -19 -45 -19
t-23 6q0 12 13 25l194 211q22 22 49 22z" />
    <glyph glyph-name="atilde" unicode="&#xe3;" 
d="M664 297q4 47 4.5 100t-1 123t-1.5 101v47q-23 -53 -81 -96t-122.5 -73.5t-127.5 -63.5t-106.5 -83t-48.5 -116q-7 -87 51.5 -135t149.5 -48q108 0 191 69.5t92 174.5zM659 -23l3 181q-54 -88 -140.5 -136.5t-189.5 -48.5q-57 0 -110.5 15t-97.5 45t-69.5 80.5
t-21.5 115.5q3 60 33.5 106.5t78.5 77t106.5 56.5t121.5 51t119 53t102.5 71.5t69.5 98.5q-1 58 -6 102t-20.5 94t-40.5 82t-69 53.5t-104 21.5q-231 0 -248 -361q-23 -26 -74 -26q-24 0 -40.5 13t-16.5 36q0 170 118 274.5t286 104.5q140 0 236 -85.5t106 -224.5
q4 -41 4 -125q0 -13 -1.5 -96.5t-1 -153t2.5 -154.5t9.5 -144t20.5 -78q10 -15 33 -15q12 0 33 3.5t31 3.5q14 0 18 -2l-12 -27q-40 -4 -129 -33t-140 -29zM535 1245q-31 0 -63.5 16.5t-60.5 39.5t-54.5 46t-55 39.5t-53.5 16.5q-37 -3 -65 -31.5t-58 -103.5l-19 14
q6 64 67.5 132.5t117.5 68.5q38 0 80.5 -24.5t74 -53.5t67.5 -53.5t62 -24.5q82 0 125 135l19 -16q-8 -68 -68 -134.5t-116 -66.5z" />
    <glyph glyph-name="adieresis" unicode="&#xe4;" 
d="M664 297q4 47 4.5 100t-1 123t-1.5 101v47q-23 -53 -81 -96t-122.5 -73.5t-127.5 -63.5t-106.5 -83t-48.5 -116q-7 -87 51.5 -135t149.5 -48q108 0 191 69.5t92 174.5zM659 -23l3 181q-54 -88 -140.5 -136.5t-189.5 -48.5q-57 0 -110.5 15t-97.5 45t-69.5 80.5
t-21.5 115.5q3 60 33.5 106.5t78.5 77t106.5 56.5t121.5 51t119 53t102.5 71.5t69.5 98.5q-1 58 -6 102t-20.5 94t-40.5 82t-69 53.5t-104 21.5q-231 0 -248 -361q-23 -26 -74 -26q-24 0 -40.5 13t-16.5 36q0 170 118 274.5t286 104.5q140 0 236 -85.5t106 -224.5
q4 -41 4 -125q0 -13 -1.5 -96.5t-1 -153t2.5 -154.5t9.5 -144t20.5 -78q10 -15 33 -15q12 0 33 3.5t31 3.5q14 0 18 -2l-12 -27q-40 -4 -129 -33t-140 -29zM223 1386q0 34 21 56t57 22q32 0 53 -24.5t21 -57.5q0 -34 -21.5 -58t-52.5 -24h-2q-34 0 -55 26t-21 60zM510 1386
q0 34 20.5 56t55.5 22q33 0 54.5 -24.5t21.5 -57.5q0 -34 -22 -58t-54 -24q-34 0 -55 26t-21 60z" />
    <glyph glyph-name="aring" unicode="&#xe5;" 
d="M664 297q4 47 4.5 100t-1 123t-1.5 101v47q-23 -53 -81 -96t-122.5 -73.5t-127.5 -63.5t-106.5 -83t-48.5 -116q-7 -87 51.5 -135t149.5 -48q108 0 191 69.5t92 174.5zM459 1321h2q31 0 53.5 23t22.5 55q0 33 -22.5 55.5t-55.5 22.5t-55.5 -22.5t-22.5 -55.5
q0 -32 23 -55t55 -23zM659 -23l3 181q-54 -88 -140.5 -136.5t-189.5 -48.5q-57 0 -110.5 15t-97.5 45t-69.5 80.5t-21.5 115.5q3 60 33.5 106.5t78.5 77t106.5 56.5t121.5 51t119 53t102.5 71.5t69.5 98.5q-1 58 -6 102t-20.5 94t-40.5 82t-69 53.5t-104 21.5
q-231 0 -248 -361q-23 -26 -74 -26q-24 0 -40.5 13t-16.5 36q0 170 118 274.5t286 104.5q140 0 236 -85.5t106 -224.5q4 -41 4 -125q0 -13 -1.5 -96.5t-1 -153t2.5 -154.5t9.5 -144t20.5 -78q10 -15 33 -15q12 0 33 3.5t31 3.5q14 0 18 -2l-12 -27q-40 -4 -129 -33t-140 -29
zM459 1260h-2q-57 0 -97.5 40.5t-40.5 98.5t40.5 98.5t99.5 40.5t99 -40t40 -99t-40 -99t-99 -40z" />
    <glyph glyph-name="ae" unicode="&#xe6;" horiz-adv-x="1497" 
d="M664 664q-24 -52 -82.5 -94t-122.5 -72t-126 -63t-105 -82.5t-48 -114.5q-6 -87 51 -135t148 -48q110 0 193 68t92 176q4 43 4 133q-9 71 -9 146q0 50 5 86zM1339 866q-17 94 -79.5 166t-159.5 72q-50 0 -91 -18.5t-69 -47.5t-49.5 -70.5t-34 -82.5t-20.5 -88h436
q32 0 51.5 20t15.5 49zM1444 758h-615q-12 -76 -12 -176q0 -143 32.5 -266t103.5 -206t169 -83q117 0 209.5 99.5t110.5 221.5l37 -6q-5 -37 -19.5 -81.5t-45.5 -97t-71.5 -95.5t-103.5 -73.5t-137 -35.5v-2h-27q-114 0 -214 70.5t-159 177.5q-55 -99 -157.5 -164.5
t-212.5 -65.5q-57 0 -110.5 15t-97.5 44.5t-69.5 80t-21.5 114.5q3 60 33.5 107t78.5 78t106.5 56.5t121.5 51t119.5 53.5t103.5 71.5t70 98.5q-1 57 -6.5 101.5t-21 94t-40.5 82t-69 54t-103 21.5q-233 0 -250 -361q-23 -26 -74 -26q-22 0 -39.5 12.5t-17.5 34.5
q0 172 118 276.5t288 104.5q102 0 183 -47t122 -131q56 92 140 142t187 50q163 0 274 -94.5t126 -259.5q1 -19 -9.5 -30t-29.5 -11z" />
    <glyph glyph-name="ccedilla" unicode="&#xe7;" horiz-adv-x="843" 
d="M285 -119l65 99q-104 28 -178 119.5t-108.5 213t-34.5 260.5q0 159 50.5 289.5t146.5 208.5t220 78q118 0 214 -66.5t135 -158.5q22 -45 -20 -92t-83 -41q-12 44 -28.5 87.5t-46 99t-74.5 90t-97 34.5q-73 0 -128 -55.5t-83.5 -141.5t-41.5 -170t-13 -162
q0 -87 18.5 -178t54.5 -174t97.5 -135.5t138.5 -52.5q114 0 207 98.5t109 216.5l37 -6q-18 -155 -131.5 -265t-266.5 -110q-31 0 -47 2l-61 -92q36 4 65 4q232 0 232 -145q0 -47 -20.5 -83.5t-49 -56t-65 -32t-62.5 -16t-47 -3.5t-48 4t-58 12.5t-51.5 26t-20.5 41.5
q0 16 10.5 29.5t26.5 13.5q17 0 31.5 -14.5t24.5 -31.5t33.5 -31.5t55.5 -14.5q24 0 48.5 5.5t52.5 19.5t45.5 45t17.5 74q0 31 -20 52.5t-52 31.5t-61 14t-59 4q-19 0 -48 -3t-41 -3q-16 0 -16 20q0 4 5 12.5t13 18.5z" />
    <glyph glyph-name="egrave" unicode="&#xe8;" horiz-adv-x="860" 
d="M702 866q-17 94 -79.5 166t-159.5 72q-50 0 -91 -18.5t-69 -47.5t-49.5 -70.5t-34 -82.5t-20.5 -88h436q32 0 51.5 20t15.5 49zM807 758h-614q-13 -82 -13 -176q0 -143 32 -266.5t102.5 -207t168.5 -83.5q117 0 210.5 101t111.5 222l37 -6q-21 -157 -132.5 -268
t-265.5 -111q-128 0 -223 81t-143.5 220.5t-48.5 317.5q0 255 114 413t303 158q163 0 274 -94.5t126 -259.5q1 -19 -9.5 -30t-29.5 -11zM416 1477l176 -254l-12 -11l-258 154q-31 19 -44 45.5t-8.5 49.5t19.5 40q23 23 53 23q43 0 74 -47z" />
    <glyph glyph-name="eacute" unicode="&#xe9;" horiz-adv-x="860" 
d="M702 866q-17 94 -79.5 166t-159.5 72q-50 0 -91 -18.5t-69 -47.5t-49.5 -70.5t-34 -82.5t-20.5 -88h436q32 0 51.5 20t15.5 49zM807 758h-614q-13 -82 -13 -176q0 -143 32 -266.5t102.5 -207t168.5 -83.5q117 0 210.5 101t111.5 222l37 -6q-21 -157 -132.5 -268
t-265.5 -111q-128 0 -223 81t-143.5 220.5t-48.5 317.5q0 255 114 413t303 158q163 0 274 -94.5t126 -259.5q1 -19 -9.5 -30t-29.5 -11zM281 1231l-13 10l176 256q31 45 74 45q34 0 53 -22q15 -16 19 -39.5t-9 -50t-44 -44.5z" />
    <glyph glyph-name="ecircumflex" unicode="&#xea;" horiz-adv-x="860" 
d="M702 866q-17 94 -79.5 166t-159.5 72q-50 0 -91 -18.5t-69 -47.5t-49.5 -70.5t-34 -82.5t-20.5 -88h436q32 0 51.5 20t15.5 49zM807 758h-614q-13 -82 -13 -176q0 -143 32 -266.5t102.5 -207t168.5 -83.5q117 0 210.5 101t111.5 222l37 -6q-21 -157 -132.5 -268
t-265.5 -111q-128 0 -223 81t-143.5 220.5t-48.5 317.5q0 255 114 413t303 158q163 0 274 -94.5t126 -259.5q1 -19 -9.5 -30t-29.5 -11zM408 1464h45q14 0 23.5 -3t14 -6.5t13.5 -12.5l192 -211q13 -11 13 -25q0 -6 -21 -6q-23 0 -45 19l-211 163l-213 -163q-22 -19 -45 -19
q-22 0 -22 6q0 13 12 25l194 211q22 22 50 22z" />
    <glyph glyph-name="edieresis" unicode="&#xeb;" horiz-adv-x="860" 
d="M702 866q-17 94 -79.5 166t-159.5 72q-50 0 -91 -18.5t-69 -47.5t-49.5 -70.5t-34 -82.5t-20.5 -88h436q32 0 51.5 20t15.5 49zM807 758h-614q-13 -82 -13 -176q0 -143 32 -266.5t102.5 -207t168.5 -83.5q117 0 210.5 101t111.5 222l37 -6q-21 -157 -132.5 -268
t-265.5 -111q-128 0 -223 81t-143.5 220.5t-48.5 317.5q0 255 114 413t303 158q163 0 274 -94.5t126 -259.5q1 -19 -9.5 -30t-29.5 -11zM190 1386q0 34 21 56t57 22q32 0 53 -24.5t21 -57.5q0 -34 -21.5 -58t-52.5 -24h-2q-34 0 -55 26t-21 60zM477 1386q0 34 20.5 56
t55.5 22q33 0 54.5 -24.5t21.5 -57.5q0 -34 -22 -58t-54 -24q-34 0 -55 26t-21 60z" />
    <glyph glyph-name="igrave" unicode="&#xec;" horiz-adv-x="415" 
d="M-6 1038l14 29q35 3 123.5 27t142.5 24l-4 -659v-33v-45.5t0.5 -50t1 -56t2 -54.5t4 -55t5.5 -46.5t7.5 -40.5t10.5 -27q7 -12 30 -19t46 -7v-25h-340v25q23 0 46 7t30 19q7 13 12.5 36.5t8.5 58.5t5.5 64t3 74t0.5 67v64v44v81v82.5v75t-1 75t-2.5 65.5t-4 62.5
t-6.5 50.5t-9 45.5t-11 31.5q-11 16 -33 16q-9 0 -38.5 -4.5t-43.5 -1.5zM369 1223l-13 -11l-258 154q-31 19 -43.5 45.5t-8 49t19.5 40.5q23 23 53 23q43 0 74 -47z" />
    <glyph glyph-name="iacute" unicode="&#xed;" horiz-adv-x="415" 
d="M-6 1038l14 29q35 3 123.5 27t142.5 24l-4 -659v-33v-45.5t0.5 -50t1 -56t2 -54.5t4 -55t5.5 -46.5t7.5 -40.5t10.5 -27q7 -12 30 -19t46 -7v-25h-340v25q23 0 46 7t30 19q7 13 12.5 36.5t8.5 58.5t5.5 64t3 74t0.5 67v64v44v81v82.5v75t-1 75t-2.5 65.5t-4 62.5
t-6.5 50.5t-9 45.5t-11 31.5q-11 16 -33 16q-9 0 -38.5 -4.5t-43.5 -1.5zM47 1241l176 256q31 45 74 45q34 0 53 -22q15 -16 19 -39.5t-9.5 -50t-44.5 -44.5l-256 -155z" />
    <glyph glyph-name="icircumflex" unicode="&#xee;" horiz-adv-x="415" 
d="M-6 1038l14 29q35 3 123.5 27t142.5 24l-4 -659v-33v-45.5t0.5 -50t1 -56t2 -54.5t4 -55t5.5 -46.5t7.5 -40.5t10.5 -27q7 -12 30 -19t46 -7v-25h-340v25q23 0 46 7t30 19q7 13 12.5 36.5t8.5 58.5t5.5 64t3 74t0.5 67v64v44v81v82.5v75t-1 75t-2.5 65.5t-4 62.5
t-6.5 50.5t-9 45.5t-11 31.5q-11 16 -33 16q-9 0 -38.5 -4.5t-43.5 -1.5zM184 1464h45q30 0 52 -22l192 -211q12 -10 12 -25q0 -6 -20 -6q-23 0 -45 19l-211 163l-213 -163q-22 -19 -45 -19t-23 6q0 12 13 25l194 211q22 22 49 22z" />
    <glyph glyph-name="idieresis" unicode="&#xef;" horiz-adv-x="415" 
d="M-6 1038l14 29q35 3 123.5 27t142.5 24l-4 -659v-33v-45.5t0.5 -50t1 -56t2 -54.5t4 -55t5.5 -46.5t7.5 -40.5t10.5 -27q7 -12 30 -19t46 -7v-25h-340v25q23 0 46 7t30 19q7 13 12.5 36.5t8.5 58.5t5.5 64t3 74t0.5 67v64v44v81v82.5v75t-1 75t-2.5 65.5t-4 62.5
t-6.5 50.5t-9 45.5t-11 31.5q-11 16 -33 16q-9 0 -38.5 -4.5t-43.5 -1.5zM254 1386q0 34 20.5 56t55.5 22q33 0 54.5 -24.5t21.5 -57.5q0 -34 -22 -58t-54 -24q-34 0 -55 26t-21 60zM-33 1386q0 34 21 56t57 22q32 0 53 -24.5t21 -57.5q0 -34 -21.5 -58t-52.5 -24h-2
q-34 0 -55 26t-21 60z" />
    <glyph glyph-name="ntilde" unicode="&#xf1;" horiz-adv-x="1015" 
d="M-6 1038l14 27q35 3 123.5 28t142.5 25l-2 -213q37 101 130.5 167t203.5 67q122 1 193.5 -73.5t83.5 -199.5q4 -43 4 -238.5t6 -368t25 -208.5q7 -12 29.5 -19t45.5 -7v-25h-340v25q23 0 46 7t30 19q6 10 10.5 27t7.5 40.5t5.5 46.5t4 55t2 54.5t1 56t0.5 50v45.5v33
q0 232 -4 342q-1 51 -11.5 95t-32.5 82t-61 60.5t-92 22.5q-36 0 -75.5 -12.5t-82 -40.5t-77.5 -83t-52 -130l-4 -336v-33v-45.5t0.5 -50t1 -56t2 -54.5t4 -55t5.5 -46.5t7.5 -40.5t10.5 -27q7 -12 30 -19t46 -7v-25h-340v25q23 0 46 7t30 19q7 13 12.5 36.5t8.5 58.5
t5.5 64t3 74t0.5 67v64v44q0 33 0.5 103.5t0 105t-1 91.5t-2.5 89.5t-5.5 71.5t-9.5 64.5t-14 43.5q-11 16 -33 16q-7 0 -37 -5.5t-45 -0.5zM631 1260q-37 0 -79 24.5t-72.5 54t-68 54t-67.5 24.5q-37 -3 -65 -31.5t-58 -103.5l-18 14q6 64 67 132.5t117 68.5q38 0 81 -24.5
t74 -53.5t67.5 -53.5t62.5 -24.5q81 0 125 136l18 -17q-8 -68 -68 -134t-116 -66z" />
    <glyph glyph-name="ograve" unicode="&#xf2;" horiz-adv-x="921" 
d="M735 571q0 547 -274 547q-277 0 -277 -547q0 -569 277 -569q274 0 274 569zM461 1161q126 0 225.5 -77.5t153 -212t53.5 -300.5q0 -165 -53.5 -304t-153 -223.5t-225.5 -84.5t-226 84.5t-153 223.5t-53 304t52.5 299t152 212.5t227.5 78.5zM446 1477l177 -254l-13 -11
l-258 154q-31 19 -44 45.5t-8.5 49.5t19.5 40q23 23 54 23q42 0 73 -47z" />
    <glyph glyph-name="oacute" unicode="&#xf3;" horiz-adv-x="921" 
d="M735 571q0 547 -274 547q-277 0 -277 -547q0 -569 277 -569q274 0 274 569zM461 1161q126 0 225.5 -77.5t153 -212t53.5 -300.5q0 -165 -53.5 -304t-153 -223.5t-225.5 -84.5t-226 84.5t-153 223.5t-53 304t52.5 299t152 212.5t227.5 78.5zM311 1231l-12 10l176 256
q31 45 74 45q34 0 53 -22q15 -16 19 -39.5t-9.5 -50t-44.5 -44.5z" />
    <glyph glyph-name="ocircumflex" unicode="&#xf4;" horiz-adv-x="921" 
d="M735 571q0 547 -274 547q-277 0 -277 -547q0 -569 277 -569q274 0 274 569zM461 1161q126 0 225.5 -77.5t153 -212t53.5 -300.5q0 -165 -53.5 -304t-153 -223.5t-225.5 -84.5t-226 84.5t-153 223.5t-53 304t52.5 299t152 212.5t227.5 78.5zM438 1464h45q30 0 52 -22
l192 -211q12 -10 12 -25q0 -6 -20 -6q-23 0 -45 19l-211 163l-213 -163q-22 -19 -45 -19t-23 6q0 12 13 25l194 211q22 22 49 22z" />
    <glyph glyph-name="otilde" unicode="&#xf5;" horiz-adv-x="921" 
d="M735 571q0 547 -274 547q-277 0 -277 -547q0 -569 277 -569q274 0 274 569zM461 1161q126 0 225.5 -77.5t153 -212t53.5 -300.5q0 -165 -53.5 -304t-153 -223.5t-225.5 -84.5t-226 84.5t-153 223.5t-53 304t52.5 299t152 212.5t227.5 78.5zM584 1260q-37 0 -79 24.5
t-72.5 54t-68 54t-67.5 24.5q-37 -3 -65 -31.5t-58 -103.5l-18 14q6 64 67 132.5t117 68.5q38 0 81 -24.5t74 -53.5t67.5 -53.5t62.5 -24.5q81 0 125 136l18 -17q-8 -68 -68 -134t-116 -66z" />
    <glyph glyph-name="odieresis" unicode="&#xf6;" horiz-adv-x="921" 
d="M735 571q0 547 -274 547q-277 0 -277 -547q0 -569 277 -569q274 0 274 569zM461 1161q126 0 225.5 -77.5t153 -212t53.5 -300.5q0 -165 -53.5 -304t-153 -223.5t-225.5 -84.5t-226 84.5t-153 223.5t-53 304t52.5 299t152 212.5t227.5 78.5zM221 1386q0 34 21 56t57 22
q32 0 53 -24.5t21 -57.5q0 -34 -21.5 -58t-52.5 -24h-2q-34 0 -55 26t-21 60zM508 1386q0 34 20.5 56t55.5 22q33 0 54 -24.5t21 -57.5q0 -34 -21.5 -58t-53.5 -24q-34 0 -55 26t-21 60z" />
    <glyph glyph-name="oslash" unicode="&#xf8;" horiz-adv-x="921" 
d="M236 193l417 813q-68 112 -192 112q-277 0 -277 -547q0 -235 52 -378zM686 938l-420 -815q67 -121 195 -121q274 0 274 569q0 230 -49 367zM227 49l-88 -174h-67l112 219q-74 85 -114.5 210t-40.5 267q0 165 52.5 299t152 212.5t227.5 78.5q125 0 231 -82l115 224l65 -3
l-135 -264q74 -80 115 -201t41 -264q0 -165 -53.5 -304t-153 -223.5t-225.5 -84.5q-130 0 -234 90z" />
    <glyph glyph-name="ugrave" unicode="&#xf9;" horiz-adv-x="1021" 
d="M750 -18v254q-37 -102 -130.5 -167.5t-205.5 -66.5q-121 -1 -191.5 73.5t-83.5 198.5q-10 104 -5.5 242t-3 296t-34.5 216q-11 16 -33 16q-9 0 -38 -4.5t-43 -1.5l14 29q35 3 123.5 27t142.5 24q0 -291 -2 -436q0 -173 6 -344q1 -48 11.5 -91.5t31.5 -82.5t59.5 -62.5
t88.5 -23.5q36 0 76 12.5t83.5 40t80 82t53.5 129.5l2 73q2 73 2.5 152.5t-1.5 174t-11.5 172.5t-26.5 114q-11 16 -33 16q-9 0 -38.5 -4.5t-43.5 -1.5l14 29q35 3 124 27t143 24q0 -15 -2 -138t-2.5 -249.5t0.5 -270t9.5 -248.5t22.5 -136q11 -17 33 -17q8 0 39 6t45 1
l-12 -27q-36 -3 -123 -30t-141 -27zM672 1223l-13 -11l-258 154q-31 19 -43.5 45.5t-8 49t19.5 40.5q23 23 53 23q43 0 74 -47z" />
    <glyph glyph-name="uacute" unicode="&#xfa;" horiz-adv-x="1021" 
d="M750 -18v254q-37 -102 -130.5 -167.5t-205.5 -66.5q-121 -1 -191.5 73.5t-83.5 198.5q-10 104 -5.5 242t-3 296t-34.5 216q-11 16 -33 16q-9 0 -38 -4.5t-43 -1.5l14 29q35 3 123.5 27t142.5 24q0 -291 -2 -436q0 -173 6 -344q1 -48 11.5 -91.5t31.5 -82.5t59.5 -62.5
t88.5 -23.5q36 0 76 12.5t83.5 40t80 82t53.5 129.5l2 73q2 73 2.5 152.5t-1.5 174t-11.5 172.5t-26.5 114q-11 16 -33 16q-9 0 -38.5 -4.5t-43.5 -1.5l14 29q35 3 124 27t143 24q0 -15 -2 -138t-2.5 -249.5t0.5 -270t9.5 -248.5t22.5 -136q11 -17 33 -17q8 0 39 6t45 1
l-12 -27q-36 -3 -123 -30t-141 -27zM350 1241l176 256q31 45 74 45q34 0 53 -22q15 -16 19 -39.5t-9.5 -50t-44.5 -44.5l-256 -155z" />
    <glyph glyph-name="ucircumflex" unicode="&#xfb;" horiz-adv-x="1021" 
d="M750 -18v254q-37 -102 -130.5 -167.5t-205.5 -66.5q-121 -1 -191.5 73.5t-83.5 198.5q-10 104 -5.5 242t-3 296t-34.5 216q-11 16 -33 16q-9 0 -38 -4.5t-43 -1.5l14 29q35 3 123.5 27t142.5 24q0 -291 -2 -436q0 -173 6 -344q1 -48 11.5 -91.5t31.5 -82.5t59.5 -62.5
t88.5 -23.5q36 0 76 12.5t83.5 40t80 82t53.5 129.5l2 73q2 73 2.5 152.5t-1.5 174t-11.5 172.5t-26.5 114q-11 16 -33 16q-9 0 -38.5 -4.5t-43.5 -1.5l14 29q35 3 124 27t143 24q0 -15 -2 -138t-2.5 -249.5t0.5 -270t9.5 -248.5t22.5 -136q11 -17 33 -17q8 0 39 6t45 1
l-12 -27q-36 -3 -123 -30t-141 -27zM489 1464h46q20 0 29.5 -5t21.5 -17l192 -211q13 -11 13 -25q0 -6 -21 -6q-23 0 -45 19l-211 163l-213 -163q-22 -19 -45 -19t-23 6q0 12 13 25l194 211q22 22 49 22z" />
    <glyph glyph-name="udieresis" unicode="&#xfc;" horiz-adv-x="1021" 
d="M750 -18v254q-37 -102 -130.5 -167.5t-205.5 -66.5q-121 -1 -191.5 73.5t-83.5 198.5q-10 104 -5.5 242t-3 296t-34.5 216q-11 16 -33 16q-9 0 -38 -4.5t-43 -1.5l14 29q35 3 123.5 27t142.5 24q0 -291 -2 -436q0 -173 6 -344q1 -48 11.5 -91.5t31.5 -82.5t59.5 -62.5
t88.5 -23.5q36 0 76 12.5t83.5 40t80 82t53.5 129.5l2 73q2 73 2.5 152.5t-1.5 174t-11.5 172.5t-26.5 114q-11 16 -33 16q-9 0 -38.5 -4.5t-43.5 -1.5l14 29q35 3 124 27t143 24q0 -15 -2 -138t-2.5 -249.5t0.5 -270t9.5 -248.5t22.5 -136q11 -17 33 -17q8 0 39 6t45 1
l-12 -27q-36 -3 -123 -30t-141 -27zM557 1386q0 34 20.5 56t55.5 22q33 0 54.5 -24.5t21.5 -57.5q0 -34 -22 -58t-54 -24q-34 0 -55 26t-21 60zM270 1386q0 34 21 56t57 22q32 0 53 -24.5t21 -57.5q0 -34 -21.5 -58t-52.5 -24h-2q-34 0 -55 26t-21 60z" />
    <glyph glyph-name="ydieresis" unicode="&#xff;" horiz-adv-x="1089" 
d="M512 6q-23 67 -76.5 228t-78.5 236t-63 185.5t-64 180t-46 116.5q-30 70 -68.5 97.5t-101.5 29.5v27h394v-25q-48 -9 -72 -26.5t-12 -53.5l264 -776q20 55 64 173t70.5 191.5t57.5 164.5t46 153.5t14 98.5q0 30 -28 52t-69 23v27h328v-27q-16 -2 -22.5 -3t-24 -6
t-28.5 -12.5t-25 -22t-23 -33.5q-52 -103 -147.5 -362t-177.5 -505q-12 -42 -18 -61.5t-20.5 -65t-24.5 -71t-27 -68.5t-32 -69.5t-35 -61t-41 -55.5t-45 -41.5t-51.5 -31t-56.5 -11.5q-32 0 -73 41q-16 15 -25.5 41.5t-8.5 48t13 22.5q2 0 28 -8.5t32 -9.5q48 -3 88.5 14.5
t67 42t51.5 67.5t37.5 71.5t29.5 74.5zM612 1386q0 34 20.5 56t55.5 22q33 0 54.5 -24.5t21.5 -57.5q0 -34 -22 -58t-54 -24q-34 0 -55 26t-21 60zM326 1386q0 35 20.5 56.5t56.5 21.5q32 0 53 -24.5t21 -57.5q0 -34 -21.5 -58t-52.5 -24h-2q-34 0 -54.5 26t-20.5 60z" />
    <glyph glyph-name="dotlessi" unicode="&#x131;" horiz-adv-x="415" 
d="M-6 1038l14 29q35 3 123.5 27t142.5 24l-4 -659v-33v-45.5t0.5 -50t1 -56t2 -54.5t4 -55t5.5 -46.5t7.5 -40.5t10.5 -27q7 -12 30 -19t46 -7v-25h-340v25q23 0 46 7t30 19q7 13 12.5 36.5t8.5 58.5t5.5 64t3 74t0.5 67v64v44v81v82.5v75t-1 75t-2.5 65.5t-4 62.5
t-6.5 50.5t-9 45.5t-11 31.5q-11 16 -33 16q-9 0 -38.5 -4.5t-43.5 -1.5z" />
    <glyph glyph-name="OE" unicode="&#x152;" horiz-adv-x="1734" 
d="M893 784q0 159 -21.5 291t-64 232.5t-111.5 156.5t-159 56t-159 -57t-111 -158t-63.5 -232.5t-21.5 -288.5q0 -160 21.5 -295.5t63.5 -241.5t111 -166.5t159 -60.5q89 0 158.5 61t112 167.5t64 242t21.5 293.5zM1053 778q0 -208 9 -402.5t23 -279.5q6 -47 64 -47
q25 1 102 2.5t114 2.5t91 3.5t83 6t40 8.5q16 9 35.5 64.5t38.5 129.5t20 76l29 -14q-1 -39 -16 -158.5t-15 -171.5l-608 2h-242v27q3 0 13.5 1t15 1t14 2t15 4t11.5 6t9 10q21 33 31 178q-70 -123 -171 -186t-222 -63q-109 0 -201 51t-160.5 149.5t-107.5 253t-39 350.5
t38.5 347t107.5 244t160.5 139.5t201.5 46.5q123 0 223 -57t168 -171q-10 125 -29 156q-3 6 -9 10t-11.5 6t-15 4t-14 2t-15 1t-13.5 1v27h809q0 -57 3.5 -149t4.5 -117l-26 -14q-4 10 -16.5 62t-28 94t-31.5 52q-36 17 -389 21q-56 3 -62 -45q-29 -165 -32 -617
q282 7 329 27q23 10 38 62.5t24 115.5t12 72l29 -4q-7 -297 0 -594l-29 -2q-3 9 -12 72t-24 115.5t-38 62.5q-49 20 -329 24z" />
    <glyph glyph-name="oe" unicode="&#x153;" horiz-adv-x="1572" 
d="M735 573q0 547 -274 547q-277 0 -277 -547q0 -569 277 -569q274 0 274 569zM1415 866q-17 94 -79.5 166t-159.5 72q-62 0 -110 -26.5t-78 -73.5t-48.5 -97t-28.5 -110h437q32 0 51.5 20t15.5 49zM1520 758h-615q-12 -76 -12 -176q0 -143 32 -266.5t102.5 -207
t168.5 -83.5q117 0 210.5 101t111.5 222l36 -6q-21 -157 -132 -268t-265 -111q-116 0 -203 65t-141 183q-59 -116 -149.5 -183t-202.5 -67q-126 0 -226 84.5t-153 223.5t-53 304t52.5 299t152 212.5t227.5 78.5q113 0 204.5 -62.5t149.5 -172.5q55 108 142.5 166.5
t201.5 58.5q163 0 274 -94.5t126 -259.5q1 -19 -9.5 -30t-29.5 -11z" />
    <glyph glyph-name="Ydieresis" unicode="&#x178;" horiz-adv-x="1097" 
d="M590 760q108 252 192 470.5t76 256.5q-7 26 -74 26v27h289v-27q-62 0 -90 -26q-31 -28 -91 -160t-146 -344.5t-119 -286.5q-7 -256 -2 -427.5t34 -215.5q16 -26 78 -26v-27h-348l-2 27q64 0 80 26q27 41 31.5 226.5t-0.5 386.5q-22 50 -121 286.5t-162 370t-96 164.5
q-26 26 -90 26v27h350v-27q-61 0 -66 -26q-16 -68 277 -727zM633 1786q0 34 20.5 56t55.5 22q33 0 54 -24.5t21 -57.5q0 -34 -21.5 -58t-53.5 -24q-34 0 -55 26t-21 60zM346 1786q0 34 21 56t57 22q32 0 53 -24.5t21 -57.5q0 -34 -21.5 -58t-52.5 -24h-2q-34 0 -55 26
t-21 60z" />
    <glyph glyph-name="circumflex" unicode="&#x2c6;" horiz-adv-x="856" 
d="M385 1464h45q20 0 29.5 -5t21.5 -17l193 -211q12 -10 12 -25q0 -6 -20 -6q-23 0 -45 19l-211 163l-213 -163q-22 -19 -45 -19t-23 6q0 13 12 25l195 211q22 22 49 22z" />
    <glyph glyph-name="caron" unicode="&#x2c7;" horiz-adv-x="860" 
d="M453 1067h-45q-32 0 -52 23l-194 243q-12 17 -12 29q0 8 22 8t45 -20l213 -191l213 191q23 20 45 20q23 0 23 -8q0 -11 -13 -29l-194 -243q-20 -23 -51 -23z" />
    <glyph glyph-name="breve" unicode="&#x2d8;" horiz-adv-x="819" 
d="M410 1067h-2q-73 0 -133 43t-89.5 101t-29.5 112q0 35 20 35q22 0 29 -33q31 -156 205 -156q84 0 136.5 40.5t67.5 115.5q7 33 29 33q21 0 21 -35q0 -55 -29.5 -112.5t-90 -100.5t-134.5 -43z" />
    <glyph glyph-name="dotaccent" unicode="&#x2d9;" horiz-adv-x="450" 
d="M227 1071h-2q-41 0 -64.5 28.5t-23.5 71.5q0 41 24.5 71t65.5 30q40 0 65 -30.5t25 -70.5q0 -41 -25 -70.5t-65 -29.5z" />
    <glyph glyph-name="ring" unicode="&#x2da;" horiz-adv-x="573" 
d="M281 1260h-2q-57 0 -97.5 40.5t-40.5 98.5t40.5 98.5t99.5 40.5t99 -40t40 -99t-40 -99t-99 -40zM281 1321h2q31 0 53 23t22 55q0 33 -22 55.5t-55 22.5t-55.5 -22.5t-22.5 -55.5q0 -32 23 -55t55 -23z" />
    <glyph glyph-name="tilde" unicode="&#x2dc;" horiz-adv-x="864" 
d="M543 1260q-37 0 -79 24.5t-72.5 54t-68 54t-67.5 24.5q-37 -3 -65 -31.5t-58 -103.5l-18 14q6 64 67 132.5t117 68.5q38 0 81 -24.5t74 -53.5t67.5 -53.5t62.5 -24.5q81 0 125 136l18 -17q-8 -68 -68 -134t-116 -66z" />
    <glyph glyph-name="endash" unicode="&#x2013;" horiz-adv-x="819" 
d="M819 516l-819 -6v106l819 7v-107z" />
    <glyph glyph-name="emdash" unicode="&#x2014;" horiz-adv-x="1517" 
d="M1520 516l-1520 -6v106l1520 7v-107z" />
    <glyph glyph-name="quoteleft" unicode="&#x2018;" horiz-adv-x="389" 
d="M197 1346q59 -3 86 -38t20 -83q-6 -50 -42.5 -78t-78.5 -23q-41 5 -65.5 42t-20.5 98q6 93 58.5 161.5t142.5 100.5l14 -31q-61 -34 -91.5 -73t-22.5 -76z" />
    <glyph glyph-name="quoteright" unicode="&#x2019;" horiz-adv-x="346" 
d="M188 1305q-59 1 -86 36.5t-20 83.5q6 50 42.5 77.5t78.5 21.5q42 -5 66 -41t20 -97q-8 -94 -60 -162t-141 -100l-14 31q60 32 90 72t24 78z" />
    <glyph glyph-name="quotesinglbase" unicode="&#x201a;" horiz-adv-x="487" 
d="M279 -14q-59 1 -86.5 36.5t-20.5 83.5q6 50 42 77t79 22q41 -5 65.5 -41.5t20.5 -97.5q-8 -94 -60 -162.5t-141 -100.5l-14 33q61 32 91 71.5t24 78.5z" />
    <glyph glyph-name="quotedblleft" unicode="&#x201c;" horiz-adv-x="815" 
d="M547 1284q58 -1 85 -37.5t21 -85.5q-7 -49 -43 -75t-78 -21q-41 5 -65.5 41.5t-20.5 97.5q6 94 58 162t141 100l14 -32q-60 -32 -89.5 -72t-22.5 -78zM240 1284q58 -1 85 -37.5t21 -85.5q-7 -49 -43 -75t-78 -21q-41 5 -65.5 41.5t-20.5 97.5q6 94 58 162t141 100l14 -32
q-60 -32 -89.5 -72t-22.5 -78z" />
    <glyph glyph-name="quotedblright" unicode="&#x201d;" horiz-adv-x="829" 
d="M295 1245q-58 1 -85 37t-20 84q6 50 42.5 77t78.5 21q42 -5 66 -41t20 -98q-8 -94 -59.5 -161.5t-140.5 -98.5l-15 31q61 32 91 71.5t22 77.5zM602 1245q-58 1 -84.5 37t-19.5 84q6 50 42 77t78 21q42 -5 66.5 -41t20.5 -98q-8 -94 -60 -161.5t-141 -98.5l-15 31
q61 32 91 71.5t22 77.5z" />
    <glyph glyph-name="quotedblbase" unicode="&#x201e;" horiz-adv-x="821" 
d="M287 -51q-58 3 -85 39t-20 84q6 50 42 76.5t79 21.5q41 -5 65.5 -41.5t20.5 -97.5q-8 -94 -60 -162t-141 -100l-14 30q61 34 91 73.5t22 76.5zM594 -51q-58 3 -85 39t-20 84q6 50 42 76.5t79 21.5q41 -5 65.5 -41.5t20.5 -97.5q-8 -94 -59.5 -162t-140.5 -100l-15 30
q61 34 91 73.5t22 76.5z" />
    <glyph glyph-name="bullet" unicode="&#x2022;" horiz-adv-x="757" 
d="M381 844q63 0 105 -42t42 -102q0 -61 -42 -102t-105 -41q-64 0 -108 41.5t-44 101.5t44 102t108 42z" />
    <glyph glyph-name="Euro" unicode="&#x20ac;" horiz-adv-x="1067" 
d="M49 674v49h107v55v41h-107v51h109q13 345 134 514.5t331 169.5q310 0 417 -354l-135 -20q-32 162 -100 247.5t-182 85.5q-298 0 -312 -643h570v-51h-572v-41v-55h572v-49h-570q18 -660 312 -660q229 0 292 414l138 -31q-52 -210 -162 -317t-268 -107q-205 0 -326.5 178
t-138.5 523h-109z" />
    <glyph glyph-name="trademark" unicode="&#x2122;" horiz-adv-x="1177" 
d="M373 850h-185v39q3 1 12.5 1.5t16 1.5t10.5 5q11 36 11 166v272q0 3 0.5 16t0.5 25t-0.5 29t-2 30.5t-3.5 25.5t-6 19t-10 7q-1 0 -18 0.5t-26.5 0t-22.5 -2.5t-19 -6q-12 -20 -33 -99l-39 19q4 94 4 139h574l180 -489l162 489h143v-41q-33 0 -39 -6q-10 -33 -10 -154
v-303q0 -108 10 -137q6 -6 39 -6v-41h-184v41q33 0 39 6q10 31 10 178v316l-186 -533l-203 512v-295q0 -143 10 -176q4 -4 10 -6t16.5 -3t12.5 -1l-2 -39h-153v39q3 1 12 1t15.5 1.5t10.5 5.5q11 39 11 158v266q0 134 -13 170q-4 6 -28 6q0 -17 1 -49t1 -49l-37 -19
q-2 6 -9 30.5t-14 43t-12 25.5q-6 4 -18.5 6t-22 2.5t-26.5 0t-19 -0.5q-5 0 -9 -5.5t-6 -16t-3.5 -21.5t-1.5 -25.5v-24.5v-22v-14v-318q0 -114 12 -143q4 -4 10.5 -5.5t15 -1.5t11.5 -1v-39z" />
    </font>
</defs>
</svg>
